<svg width="44" height="46" viewBox="0 0 44 46" fill="none" xmlns="http://www.w3.org/2000/svg">
<path d="M27.7619 18.0058C27.7619 14.6497 27.7619 11.2943 27.7619 7.93979C27.7504 7.81523 27.7725 7.68987 27.8261 7.57681C27.8796 7.46375 27.9625 7.36712 28.0661 7.29708C28.3321 7.07905 28.504 6.767 28.5461 6.42564C28.6003 5.26644 28.5779 4.10134 28.5638 2.93979C28.5555 2.24403 28.1039 1.84899 27.3468 1.84781C23.3735 1.84781 19.4007 1.84781 15.4282 1.84781C15.0013 1.84781 14.5744 1.84073 14.1475 1.84781C13.4706 1.86432 13.0426 2.28059 13.0355 2.95512C13.0237 4.10252 13.006 5.25229 13.0496 6.39851C13.0724 6.71317 13.2126 7.00779 13.4423 7.22399C13.6994 7.43743 13.7407 7.64144 13.7407 7.93153C13.7407 15.4363 13.7379 22.9414 13.7324 30.4469C13.7324 32.7841 14.6546 34.6167 16.532 35.9999C19.6121 38.2664 22.7018 40.5212 25.7442 42.8396C29.4317 45.6473 34.3716 43.915 35.7466 39.948C36.1876 38.6726 36.211 37.2898 35.8132 36.0002C35.4154 34.7106 34.6172 33.5813 33.5343 32.7759C31.7501 31.428 29.9494 30.1037 28.1452 28.7841C28.0172 28.7055 27.9131 28.5934 27.8441 28.46C27.7751 28.3266 27.7439 28.1769 27.7537 28.0271C27.7678 24.6863 27.7619 21.349 27.7619 18.0058ZM26.3468 15.987V16.5495C26.3468 20.5365 26.3539 24.5223 26.3386 28.5082C26.3239 28.7256 26.3676 28.9429 26.465 29.1378C26.5625 29.3326 26.7101 29.498 26.8928 29.6167C28.7796 30.994 30.657 32.3863 32.5249 33.7936C32.973 34.1308 33.3633 34.5436 33.822 34.9646C29.4176 35.3738 27.2324 37.7275 27.1003 42.0719L18.5414 35.7252C21.7159 31.8808 19.7065 26.3643 15.1794 25.2865V15.987H26.3468ZM27.1369 6.05417H14.4824V3.28295H27.1393L27.1369 6.05417ZM33.6157 36.4598C33.677 36.4598 33.8386 36.4763 34.0001 36.4775C34.3716 36.4775 34.6074 36.6155 34.6121 37.0353C34.6169 37.4551 34.6817 37.8855 34.6581 38.3077C34.5084 40.9999 31.8044 43.1851 29.1463 42.7888C28.8692 42.7464 28.7136 42.6638 28.657 42.3549C28.0921 39.2806 30.4081 36.4634 33.6157 36.4598ZM15.2348 26.8065C16.8798 27.362 18.0084 28.474 18.4895 30.1745C18.9812 31.9115 18.5685 33.4657 17.3845 34.8584C16.2053 34.0329 15.3798 32.9716 15.2619 31.5943C15.1369 30.033 15.2348 28.4539 15.2348 26.8065ZM26.3256 8.88201H15.1876V7.52941H26.3256V8.88201ZM15.1723 10.349H26.3173V11.7134H15.1723V10.349ZM15.1888 14.5471V13.1709H26.3197V14.5459L15.1888 14.5471Z" fill="#101010"/>
<path d="M22.9246 18.4633C22.9269 18.6732 22.9913 18.8776 23.1098 19.0508C23.2283 19.224 23.3955 19.3582 23.5903 19.4364C23.785 19.5146 23.9985 19.5333 24.2039 19.4902C24.4093 19.447 24.5973 19.344 24.7441 19.194C24.8909 19.0441 24.99 18.854 25.0288 18.6477C25.0676 18.4415 25.0443 18.2284 24.9621 18.0354C24.8798 17.8423 24.7421 17.678 24.5664 17.5632C24.3908 17.4483 24.185 17.3882 23.9752 17.3903C23.6941 17.3949 23.4262 17.5102 23.2295 17.711C23.0328 17.9119 22.9233 18.1822 22.9246 18.4633Z" fill="#101010"/>
<path d="M17.6133 19.5034C17.8231 19.5067 18.0291 19.4476 18.2054 19.3338C18.3817 19.2199 18.5202 19.0564 18.6036 18.8638C18.6869 18.6712 18.7113 18.4582 18.6737 18.2518C18.636 18.0454 18.538 17.8547 18.392 17.704C18.246 17.5532 18.0586 17.4491 17.8535 17.4048C17.6484 17.3605 17.4348 17.3781 17.2396 17.4552C17.0444 17.5323 16.8765 17.6655 16.757 17.838C16.6376 18.0106 16.5719 18.2146 16.5684 18.4244C16.5655 18.7056 16.6736 18.9765 16.8692 19.1785C17.0648 19.3805 17.3322 19.4972 17.6133 19.5034Z" fill="#101010"/>
<path d="M20.1015 21.3348C20.113 21.5444 20.1865 21.7458 20.3124 21.9137C20.4384 22.0815 20.6113 22.2083 20.8093 22.2779C21.0073 22.3475 21.2215 22.3568 21.4248 22.3047C21.6281 22.2526 21.8114 22.1414 21.9515 21.9852C22.0916 21.8289 22.1822 21.6346 22.2119 21.4268C22.2416 21.2191 22.2091 21.0072 22.1184 20.8179C22.0277 20.6287 21.8829 20.4705 21.7023 20.3636C21.5217 20.2566 21.3135 20.2055 21.1039 20.2169C20.8234 20.2339 20.5609 20.3608 20.3733 20.5701C20.1856 20.7793 20.0879 21.0541 20.1015 21.3348Z" fill="#101010"/>
<path d="M23.9623 24.448C24.1721 24.4526 24.3787 24.3949 24.5557 24.2823C24.7327 24.1696 24.8723 24.0069 24.9569 23.8149C25.0416 23.6229 25.0674 23.4101 25.0311 23.2034C24.9948 22.9968 24.8981 22.8055 24.7531 22.6538C24.6081 22.5021 24.4214 22.3967 24.2166 22.3511C24.0118 22.3054 23.7981 22.3215 23.6024 22.3973C23.4067 22.4731 23.2379 22.6052 23.1173 22.7769C22.9967 22.9486 22.9297 23.1522 22.9247 23.3619C22.9214 23.5014 22.9457 23.6402 22.9961 23.7703C23.0465 23.9004 23.122 24.0193 23.2184 24.1202C23.3148 24.221 23.4301 24.3019 23.5578 24.3582C23.6854 24.4144 23.8228 24.4449 23.9623 24.448Z" fill="#101010"/>
<path d="M17.618 22.3348C17.4081 22.3348 17.2029 22.397 17.0284 22.5137C16.8539 22.6303 16.7178 22.796 16.6375 22.99C16.5572 23.1839 16.5362 23.3973 16.5771 23.6032C16.6181 23.809 16.7192 23.9982 16.8676 24.1466C17.016 24.295 17.2051 24.3961 17.411 24.437C17.6169 24.478 17.8303 24.457 18.0242 24.3767C18.2181 24.2963 18.3839 24.1603 18.5005 23.9858C18.6171 23.8112 18.6794 23.606 18.6794 23.3961C18.6794 23.1146 18.5675 22.8447 18.3685 22.6457C18.1695 22.4466 17.8995 22.3348 17.618 22.3348Z" fill="#101010"/>
<path d="M20.0991 25.527C20.1015 25.7368 20.166 25.9413 20.2845 26.1145C20.403 26.2877 20.5702 26.4219 20.7649 26.5001C20.9596 26.5783 21.1732 26.597 21.3786 26.5538C21.5839 26.5107 21.7719 26.4076 21.9187 26.2577C22.0655 26.1078 22.1646 25.9176 22.2034 25.7114C22.2422 25.5052 22.219 25.2921 22.1367 25.099C22.0544 24.906 21.9167 24.7417 21.7411 24.6268C21.5654 24.512 21.3597 24.4518 21.1498 24.4539C20.8687 24.4586 20.6008 24.5738 20.4041 24.7747C20.2074 24.9756 20.0978 25.2459 20.0991 25.527Z" fill="#101010"/>
<path d="M22.9246 29.0518C22.9246 29.2617 22.9869 29.4669 23.1035 29.6414C23.2201 29.8159 23.3859 29.952 23.5798 30.0323C23.7738 30.1126 23.9871 30.1337 24.193 30.0927C24.3989 30.0518 24.588 29.9507 24.7364 29.8022C24.8849 29.6538 24.9859 29.4647 25.0269 29.2588C25.0678 29.053 25.0468 28.8396 24.9665 28.6456C24.8862 28.4517 24.7501 28.2859 24.5756 28.1693C24.4011 28.0527 24.1959 27.9905 23.986 27.9905C23.705 27.992 23.4359 28.1043 23.2372 28.303C23.0385 28.5017 22.9261 28.7708 22.9246 29.0518Z" fill="#101010"/>
<path d="M26.4564 32.573C26.455 32.7829 26.5159 32.9886 26.6314 33.1639C26.7469 33.3393 26.9119 33.4764 27.1053 33.558C27.2988 33.6396 27.5121 33.6619 27.7183 33.6223C27.9244 33.5826 28.1142 33.4827 28.2636 33.3351C28.4129 33.1876 28.5152 32.999 28.5574 32.7933C28.5996 32.5877 28.5798 32.3741 28.5006 32.1797C28.4214 31.9852 28.2863 31.8186 28.1124 31.701C27.9385 31.5834 27.7336 31.5199 27.5236 31.5188C27.2424 31.5172 26.972 31.6274 26.7719 31.825C26.5717 32.0227 26.4583 32.2917 26.4564 32.573Z" fill="#101010"/>
<path d="M22.9246 33.2735C22.922 33.4834 22.9817 33.6893 23.0962 33.8653C23.2107 34.0412 23.3747 34.1792 23.5677 34.2619C23.7606 34.3446 23.9737 34.3682 24.1801 34.3298C24.3864 34.2913 24.5768 34.1926 24.727 34.046C24.8772 33.8994 24.9806 33.7115 25.0241 33.5062C25.0675 33.3008 25.0491 33.0872 24.9712 32.8923C24.8932 32.6974 24.7593 32.53 24.5862 32.4113C24.4131 32.2925 24.2087 32.2277 23.9988 32.2252C23.8594 32.2235 23.7211 32.2492 23.5916 32.301C23.4622 32.3527 23.3443 32.4295 23.2445 32.5268C23.1447 32.6242 23.0651 32.7402 23.0102 32.8683C22.9553 32.9965 22.9263 33.1341 22.9246 33.2735Z" fill="#101010"/>
<path d="M26.0944 38.5754C26.3043 38.5774 26.5101 38.5173 26.6857 38.4024C26.8614 38.2875 26.9991 38.1232 27.0814 37.93C27.1636 37.7369 27.1868 37.5238 27.1479 37.3175C27.109 37.1112 27.0098 36.9211 26.8629 36.7712C26.7159 36.6213 26.5278 36.5183 26.3224 36.4753C26.1169 36.4323 25.9033 36.4512 25.7086 36.5296C25.5139 36.608 25.3468 36.7423 25.2284 36.9157C25.1101 37.089 25.0458 37.2936 25.0437 37.5035C25.0423 37.6428 25.0683 37.7811 25.1204 37.9104C25.1724 38.0397 25.2494 38.1575 25.347 38.2571C25.4446 38.3566 25.5608 38.4359 25.689 38.4906C25.8173 38.5452 25.955 38.574 26.0944 38.5754Z" fill="#101010"/>
</svg>
