<svg width="107" height="106" viewBox="0 0 107 106" fill="none" xmlns="http://www.w3.org/2000/svg">
<g clip-path="url(#clip0_4536_16822)">
<g clip-path="url(#clip1_4536_16822)">
<path d="M62.9686 106C60.9943 105.309 58.828 104.894 57.0457 103.871C50.0807 99.8889 47.4757 91.2338 50.9856 83.9613C53.4535 78.818 56.0311 73.7301 58.6087 68.6144C58.9651 67.9231 59.02 67.3148 58.7458 66.5682C58.1151 64.8814 57.5941 63.1393 56.9908 61.3143C53.6729 63.9965 50.4372 66.6235 47.2015 69.2228C45.1724 70.8542 43.1706 72.541 41.114 74.1448C31.9006 81.362 18.6836 76.2187 16.6545 64.6602C16.4077 63.2776 16.5174 61.8397 16.5722 60.4294C16.5996 59.4063 17.3674 58.798 18.2449 58.8809C19.1498 58.9915 19.7256 59.7381 19.6159 60.8442C19.3417 63.4711 19.8627 65.9322 21.1515 68.1996C24.7985 74.5596 33.0523 76.3847 38.8929 71.8774C44.24 67.7572 49.45 63.4158 54.6875 59.1574C56.1956 57.9407 56.0585 58.5214 55.4004 56.5581C54.0019 52.2444 52.576 47.9307 51.1227 43.5617C50.7663 43.617 50.492 43.6446 50.1904 43.6723C48.1064 43.9488 46.4063 42.898 45.6934 40.8794C45.3369 39.8839 45.0627 38.8332 44.6514 37.8653C44.5417 37.5612 44.1304 37.2294 43.8287 37.174C42.3754 36.9528 40.9221 36.8146 39.3865 36.6487C39.3043 37.3123 39.1397 37.9207 39.1397 38.529C39.1946 39.9116 38.5365 40.7965 37.4945 41.626C33.1619 45.0549 28.8568 48.539 24.6066 52.0785C23.4549 53.0187 22.4677 54.2077 21.4806 55.3414C20.6854 56.254 19.8902 56.5581 19.1224 55.9774C18.382 55.4244 18.2175 54.4842 18.9578 53.5994C20.0547 52.2721 21.1515 50.9448 22.4403 49.8387C26.6906 46.2992 31.0231 42.8704 35.2734 39.3586C35.6573 39.0544 35.9863 38.5013 36.0412 38.0313C36.8089 31.2842 37.5493 24.5371 38.2623 17.79C38.4268 16.4074 38.5639 14.9971 38.701 13.6421C35.9589 12.7849 34.6975 11.2917 34.862 9.16252C34.9717 7.83522 35.1363 6.48027 35.3008 5.15297C35.383 4.48932 35.4105 3.85332 35.5476 3.21733C35.9863 1.22638 37.6316 -0.128572 39.6333 0.00968821C42.4303 0.230905 45.2272 0.562729 47.9967 0.894554C48.9839 1.00516 49.5049 1.72412 49.45 2.58133C49.3678 3.49385 48.7097 4.04689 47.6403 3.93628C45.1998 3.71506 42.7319 3.43854 40.2914 3.13437C38.8929 2.96846 38.6187 3.18967 38.4816 4.62758C38.3445 6.06549 38.2074 7.50339 38.0155 8.9413C37.8784 9.90912 38.2897 10.3792 39.1946 10.4622C43.1158 10.8769 47.0096 11.3194 50.9308 11.7342C56.936 12.3978 62.9686 13.0338 68.9738 13.6975C70.3175 13.8357 70.6191 13.6145 70.7562 12.2595C70.9207 10.794 71.0578 9.30078 71.2498 7.83522C71.3595 6.9227 71.003 6.45262 70.1255 6.36966C64.9978 5.81662 59.87 5.26358 54.7149 4.68288C54.3858 4.65523 54.0294 4.62758 53.7003 4.54462C52.768 4.32341 52.3293 3.71506 52.4115 2.8302C52.4938 1.97298 53.1245 1.41994 54.0568 1.5029C56.4698 1.72412 58.8829 2.00064 61.2959 2.2495C64.1751 2.55368 67.0818 2.91315 69.961 3.18967C73.087 3.49385 74.5677 5.23593 74.2387 8.36061C74.1016 9.66025 73.9645 10.9599 73.8274 12.2595C73.4983 15.4395 72.2644 16.6562 69.0287 16.8774C68.919 17.9006 68.7819 18.9237 68.6722 19.9745C68.5625 20.9976 68.4528 22.0207 68.3431 23.2374C70.1804 22.6291 71.8805 22.076 73.5806 21.523C74.3484 21.2741 75.1436 20.9976 75.9114 20.7487C78.1599 20.0574 80.2439 21.0806 81.0391 23.2651C81.6698 24.9795 82.2456 26.7216 82.7666 28.4636C83.4521 30.7311 82.5747 32.3626 79.9971 33.8005C81.3133 37.81 82.6295 41.8196 83.9457 45.8291C85.8926 51.719 87.8395 57.5813 89.759 63.4711C90.0606 64.3837 90.28 65.3238 90.4445 66.264C90.6639 67.5637 90.2251 68.3379 89.2654 68.5038C88.3057 68.6697 87.7573 68.0337 87.4008 66.7617C86.4136 63.3329 85.3442 59.9317 84.2748 56.3922C76.4872 58.9915 68.8641 61.5632 61.1314 64.1348C61.3782 64.9091 61.5701 65.6004 61.8444 66.264C62.2557 67.2595 62.146 68.1443 61.6524 69.1122C58.9926 74.3661 56.3601 79.6199 53.7826 84.9015C50.3824 91.9251 53.7551 99.8889 61.0217 102.184C66.4511 103.898 72.4563 101.576 75.1436 96.4047C78.3518 90.2936 81.3407 84.0443 84.4119 77.8502C85.2894 76.0528 86.112 74.2554 86.962 72.4304C87.3734 71.5455 88.1411 71.1861 88.9638 71.4902C89.759 71.7668 90.1429 72.624 89.8138 73.5365C89.5122 74.4214 89.1557 75.2786 88.7444 76.1081C85.3168 83.0211 81.8891 89.9065 78.4615 96.8195C75.9936 101.852 72.0724 104.866 66.5334 105.696C66.3963 105.723 66.2866 105.806 66.1495 105.834C65.1623 106 64.0655 106 62.9686 106ZM46.845 34.2706C46.9547 34.7683 47.0096 34.9895 47.0918 35.2384C47.5854 36.704 48.0516 38.1695 48.5452 39.6351C48.9016 40.6859 49.2581 40.8518 50.3275 40.4923C59.8152 37.3123 69.3303 34.1323 78.818 30.9523C79.9422 30.5652 80.1342 30.2334 79.7503 29.0996C79.3116 27.7447 78.8728 26.4174 78.4067 25.0901C77.9405 23.7075 77.6663 23.5416 76.3227 24.0117C72.374 25.339 68.4254 26.6663 64.4494 27.9659C58.9651 29.7909 53.5084 31.6436 48.0242 33.4963C47.6128 33.6622 47.2289 34.0217 46.845 34.2706ZM57.5667 53.2399C65.2994 50.6406 72.9499 48.0966 80.6278 45.525C80.0519 43.7552 79.5035 42.0961 78.9277 40.4093C71.2224 42.981 63.5993 45.5526 55.894 48.1243C56.4424 49.8663 56.9908 51.4978 57.5667 53.2399ZM81.5875 48.4837C73.8822 51.0554 66.2591 53.627 58.5538 56.1987C59.1297 57.9407 59.6781 59.5999 60.2539 61.3143C67.9867 58.715 75.6097 56.171 83.2876 53.5994C82.7118 51.8573 82.1634 50.1982 81.5875 48.4837ZM65.2446 22.4079C57.265 21.523 49.2855 20.6658 41.2237 19.7809C41.0318 21.6336 40.8398 23.348 40.6479 25.0348C40.8398 25.1178 40.9769 25.1731 41.0866 25.2007C46.3789 25.7814 51.6712 26.3621 56.9908 26.9151C57.4844 26.9704 58.0054 26.8322 58.499 26.6939C60.2265 26.1409 61.9266 25.5602 63.6541 24.9795C65.3268 24.4265 65.3268 24.4264 65.2446 22.4079ZM54.9068 45.1655C62.6396 42.5662 70.2626 40.0222 77.9405 37.4506C77.6389 36.5381 77.3647 35.7085 77.063 34.796C69.3577 37.3676 61.7347 39.9393 54.0294 42.5109C54.331 43.4511 54.6052 44.253 54.9068 45.1655ZM66.0124 16.5456C57.8957 15.6608 49.9162 14.7759 41.8818 13.891C41.7722 14.8865 41.6899 15.7161 41.5802 16.6562C49.642 17.5411 57.6215 18.426 65.6833 19.3108C65.793 18.3707 65.9027 17.5411 66.0124 16.5456ZM40.3188 28.2424C40.1269 30.0951 39.9349 31.8095 39.743 33.6069C41.1963 33.7452 42.4851 33.8834 43.8561 34.0217C44.4594 30.4822 47.6403 30.5652 49.9436 29.2656C46.7902 28.9337 43.6368 28.6019 40.3188 28.2424Z" fill="#141414"/>
<path d="M28.5 56.9899C28.5281 54.9655 29.3154 53.4539 31.0867 52.5631C32.858 51.6723 34.6292 51.8613 36.2318 52.968C36.7379 53.2919 37.0753 53.3459 37.6376 53.1299C39.5776 52.3471 41.4614 52.5631 42.9796 54.0207C44.4979 55.4513 44.8915 57.2329 44.1043 59.1224C43.7106 60.0671 43.064 60.9579 42.333 61.6867C41.6301 62.4155 40.7304 63.0093 39.8026 63.4682C35.4165 65.6277 35.5571 65.6546 31.7052 62.5775C29.9339 61.0928 28.6125 59.2843 28.5 56.9899ZM31.4522 56.72C31.6771 57.7997 32.2394 58.9064 33.4765 59.9591C36.2881 62.3075 35.5852 62.2805 38.7623 60.499C39.7463 59.9591 40.5054 58.9064 41.1802 57.9887C41.6301 57.3678 41.377 56.4771 40.7023 56.1262C40.1399 55.8562 39.2121 55.7752 38.6779 56.0452C36.513 57.0709 36.4568 57.0709 34.6292 55.6403C34.1513 55.2624 33.2235 55.1004 32.633 55.2894C32.1269 55.4243 31.8458 56.2071 31.4522 56.72Z" fill="#141414"/>
<path d="M64.4158 80.0512C64.5231 80.0797 64.8451 80.1937 65.1134 80.1367C65.4891 80.0797 65.972 80.0226 66.2135 79.766C67.8771 77.9984 69.9969 77.5137 71.8751 78.5116C73.7534 79.538 74.7998 81.7903 74.4242 84.1566C73.9143 87.2642 72.1434 89.545 70.0505 91.5693C69.7285 91.8544 69.1919 92.0254 68.7626 91.9969C66.1867 91.7688 63.745 91.1131 61.6789 89.374C60.23 88.1766 59.425 86.58 59.5055 84.5843C59.586 82.0184 61.6789 80.0226 64.4158 80.0512ZM71.4726 83.5579C71.5263 82.4745 71.0433 81.5622 70.3457 81.3341C69.4602 81.049 68.7894 81.4196 68.2796 82.2179C67.2063 83.957 66.7233 84.0996 64.7914 83.3868C64.067 83.1017 63.3962 83.2158 62.8595 83.8145C62.2961 84.4702 62.3497 85.2685 62.7522 85.9813C62.9669 86.3804 63.262 86.8081 63.6108 86.9791C65.0598 87.6349 66.5624 88.1766 68.065 88.7468C68.2259 88.8038 68.4943 88.7468 68.6016 88.6042C69.9969 87.1502 71.2043 85.5536 71.4726 83.5579Z" fill="#141414"/>
</g>
</g>
<defs>
<clipPath id="clip0_4536_16822">
<rect width="106" height="106" fill="white" transform="translate(0.5)"/>
</clipPath>
<clipPath id="clip1_4536_16822">
<rect width="106" height="106" fill="white" transform="translate(0.5)"/>
</clipPath>
</defs>
</svg>
