<svg width="87" height="86" viewBox="0 0 87 86" fill="none" xmlns="http://www.w3.org/2000/svg">
<path d="M0.189453 49.7045C0.391292 48.7174 0.548277 47.7304 0.839821 46.7658C2.4321 41.1802 5.88578 37.1872 11.2233 34.8991C12.8828 34.1813 14.6097 33.5756 16.2917 32.9026C18.5119 32.0278 19.3641 30.794 19.3641 28.4386C19.3641 25.5224 19.3641 22.6286 19.3865 19.7124C19.3865 19.1965 19.2295 18.9497 18.7586 18.7254C16.9645 17.8954 16.0226 16.4597 16.0001 14.4857C15.9777 11.2106 15.9777 7.93544 16.0001 4.66032C16.0001 2.03574 17.9961 0.0168243 20.62 0.0168243C31.3623 -0.00560809 42.1046 -0.00560809 52.8469 0.0168243C55.4708 0.0168243 57.4667 1.94601 57.534 4.61545C57.6013 7.91301 57.5788 11.2106 57.534 14.5306C57.534 15.2035 57.3097 15.8989 57.1752 16.6392C58.3862 16.6392 59.5972 16.6392 60.8307 16.6392C62.9388 16.6392 65.0244 16.6392 67.1325 16.6392C68.052 16.6392 68.6127 17.1327 68.6351 17.873C68.6575 18.6581 68.0744 19.1516 67.1101 19.1516C61.3465 19.1516 55.5829 19.1516 49.8193 19.1516C47.8906 19.1516 47.1057 19.9143 47.1057 21.8211C47.1057 24.7597 47.1057 27.6983 47.1057 30.637C47.1057 32.454 47.8906 33.2616 49.7071 33.2616C60.1803 33.2616 70.6311 33.2616 81.1042 33.2616C82.8535 33.2616 83.6384 32.454 83.6609 30.6818C83.6609 27.6983 83.6609 24.6924 83.6609 21.7089C83.6609 19.9592 82.8535 19.174 81.0818 19.174C78.5925 19.174 76.1031 19.174 73.6138 19.174C72.6046 19.174 72.0664 18.7478 72.0439 17.9403C72.0215 17.1103 72.5822 16.6616 73.6362 16.6616C76.2153 16.6616 78.7943 16.6392 81.3509 16.6616C84.1767 16.6841 86.1502 18.6581 86.1726 21.4846C86.1951 24.67 86.1951 27.8554 86.1726 31.0632C86.1502 33.1045 85.1859 34.5851 83.3245 35.4375C82.8759 35.6394 82.7638 35.8637 82.7638 36.3124C82.7862 38.1518 82.7638 40.0137 82.7638 41.8531C82.7638 42.055 82.7638 42.2345 82.7638 42.4364C82.6965 43.2888 82.2031 43.8272 81.4855 43.8048C80.7678 43.8048 80.2745 43.2664 80.252 42.3915C80.2296 40.5521 80.252 38.6902 80.252 36.8507C80.252 36.5367 80.252 36.2451 80.252 35.8637C70.3395 35.8637 60.4943 35.8637 50.5369 35.8637C50.5369 36.4245 50.5369 36.9629 50.5369 37.5237C50.5145 40.4623 50.6042 43.401 50.4248 46.3396C50.2678 48.8969 48.7428 50.6691 46.4105 51.6785C44.706 52.3963 42.9792 53.0245 41.2748 53.6974C31.2726 57.6904 28.1553 69.8936 35.0402 78.059C39.234 83.0389 46.2759 84.8784 52.3311 82.4333C57.4891 80.347 62.6472 78.2384 67.6483 75.8157C75.7892 71.8676 79.9156 65.1828 80.2745 56.165C80.3642 53.6974 80.2969 51.2299 80.2969 48.7847C80.2969 47.708 80.7454 47.1696 81.5752 47.192C82.3601 47.2145 82.8311 47.7529 82.8087 48.7623C82.7414 52.329 82.9656 55.9631 82.4723 59.485C81.2388 68.2111 76.4171 74.5146 68.4557 78.2384C63.634 80.5041 58.7002 82.5454 53.7439 84.5419C52.0619 85.2373 50.2005 85.5289 48.4288 86C47.3075 86 46.1862 86 45.0649 86C44.863 85.9551 44.6388 85.8654 44.4369 85.843C36.7671 84.9457 30.2634 78.6422 29.1196 70.9928C28.8954 69.4898 28.8954 67.9644 28.7832 66.4166C27.4601 66.9774 26.1145 67.583 24.7465 68.1214C15.1928 71.8452 4.45049 66.8876 1.17622 57.1969C0.727689 55.8509 0.503424 54.4377 0.189453 53.0693C0.189453 51.9477 0.189453 50.8261 0.189453 49.7045ZM21.8759 19.1516C21.8759 19.5778 21.8759 19.8919 21.8759 20.1835C21.8759 23.01 21.8759 25.8365 21.8759 28.6629C21.8534 31.781 20.3509 33.9794 17.4579 35.1459C15.6637 35.8637 13.8472 36.5142 12.0755 37.2769C4.67475 40.395 0.951954 48.695 3.50857 56.322C6.06519 63.9266 14.0939 68.3906 21.831 66.3268C24.1858 65.6987 26.406 64.5547 28.6935 63.6574C29.2093 63.4555 29.456 63.1639 29.6354 62.6255C31.4296 57.2866 34.9281 53.4955 40.1535 51.3869C41.813 50.7139 43.4726 50.0858 45.1546 49.4353C46.9935 48.7174 47.9355 47.3266 47.9579 45.375C47.9803 42.3242 47.9803 39.2734 47.9579 36.2226C47.9579 35.9759 47.7336 35.5945 47.5094 35.4824C45.4685 34.5626 44.5491 32.9475 44.5491 30.7491C44.5491 28.3489 44.5266 25.9262 44.5491 23.5259C44.5715 22.0903 44.6836 20.6546 44.7509 19.1516C44.2351 19.1516 43.5399 19.1516 42.8446 19.1516C40.7366 19.1516 38.6509 19.1516 36.5428 19.1516C35.6457 19.1516 35.0851 18.6357 35.0851 17.8954C35.0851 17.1551 35.6457 16.6616 36.5652 16.6392C36.7895 16.6392 37.0138 16.6392 37.238 16.6392C42.3513 16.6392 47.4869 16.6392 52.6002 16.6392C54.0803 16.6392 54.9774 15.8541 54.9998 14.4184C55.0447 11.2106 55.0447 7.98031 54.9998 4.77248C54.9774 3.35924 54.1027 2.55168 52.6899 2.55168C42.0597 2.55168 31.4296 2.55168 20.7994 2.55168C19.3193 2.55168 18.467 3.42654 18.467 4.90708C18.467 8.0476 18.4446 11.1657 18.467 14.3062C18.467 15.7868 19.3417 16.6168 20.8218 16.6392C22.6159 16.6392 24.4101 16.6392 26.2042 16.6392C27.5498 16.6392 28.8954 16.6392 30.241 16.6392C31.1604 16.6392 31.7211 17.1327 31.7211 17.873C31.7211 18.6132 31.1604 19.1292 30.2634 19.1516C29.8373 19.1516 29.4336 19.1516 29.0075 19.1516C26.6976 19.1516 24.3428 19.1516 21.8759 19.1516Z" fill="#141414" stroke="#141414" stroke-width="0.401477"/>
<path d="M67.1891 59.225C67.1432 60.857 66.0183 62.5978 64.5031 64.1209C62.9421 65.6876 61.0825 66.9279 59.0394 67.8418C58.6032 68.0376 57.8686 68.0594 57.4324 67.8636C55.0448 66.7756 52.9098 65.3177 51.211 63.3593C49.7647 61.6839 48.8924 59.8125 49.2826 57.5931C49.9254 54.0028 54.0118 51.9791 57.5012 53.524C57.9604 53.7199 58.3277 53.7852 58.8327 53.5676C62.7814 51.7833 67.235 54.5032 67.1891 59.225ZM64.6409 58.4634C64.6409 57.3972 64.0899 56.4398 62.9191 55.8306C61.7253 55.2213 60.5316 55.3083 59.4296 56.0264C58.19 56.8315 58.2129 56.8315 56.9732 56.0046C55.0219 54.6991 52.3589 55.6782 51.8538 57.8977C51.5783 59.0945 52.0145 60.1607 52.7032 61.1181C54.0118 62.9677 55.8713 64.2297 57.8686 65.2959C58.0522 65.4047 58.4425 65.3612 58.6491 65.2524C60.4397 64.295 62.0697 63.1635 63.3553 61.6186C64.0669 60.7917 64.595 59.8125 64.6409 58.4634Z" fill="black"/>
<path d="M20.1895 43.2411C20.1895 38.4739 24.637 35.7965 28.626 37.5597C28.924 37.6903 29.3825 37.7121 29.6806 37.5815C31.996 36.6454 34.1739 36.7978 36.0997 38.3433C38.0254 39.8888 38.5756 41.9132 37.9337 44.2206C37.3376 46.3539 35.8704 47.9647 34.1052 49.2925C32.8443 50.2503 31.4458 51.0775 30.0244 51.8176C29.5889 52.057 28.8094 52.057 28.3509 51.8394C25.9666 50.7292 23.8346 49.2925 22.1381 47.3117C20.9918 45.9621 20.2124 44.4383 20.1895 43.2411ZM22.7342 43.0887C22.9863 43.5894 23.2844 44.5907 23.8804 45.4179C25.1184 47.1593 26.9066 48.3348 28.8323 49.3361C29.0386 49.4449 29.4742 49.4231 29.6576 49.2708C31.1249 48.2041 32.6838 47.2246 33.9676 45.9838C34.7471 45.2437 35.2285 44.1118 35.5265 43.0887C35.8933 41.8044 35.2743 40.6725 34.0822 39.9541C32.913 39.2576 31.6292 39.1923 30.5517 39.9977C29.5201 40.7596 28.7635 40.716 27.7778 39.9759C26.769 39.2358 25.5769 39.2793 24.4536 39.8671C23.3302 40.433 22.78 41.3691 22.7342 43.0887Z" fill="black"/>
</svg>
