<svg width="107" height="106" viewBox="0 0 107 106" fill="none" xmlns="http://www.w3.org/2000/svg">
<path d="M58.1767 106C55.7829 105.611 53.441 105.066 51.3334 103.743C46.8058 100.916 44.2037 96.8953 43.6053 91.6297C43.0588 86.9087 44.6721 82.8881 47.6905 79.3344C53.9874 71.9418 60.2844 64.5231 66.6074 57.1305C67.2058 56.4301 67.4921 55.7557 67.4921 54.8219C67.466 45.0168 67.362 35.2118 67.5441 25.4068C67.5961 22.5535 68.3507 19.6742 68.9752 16.8728C69.3655 15.1348 71.0048 14.0454 72.9043 14.0195C79.9819 13.9935 87.0595 13.9935 94.137 14.0195C96.1146 14.0195 97.6238 15.3942 98.1442 17.3397C99.4972 22.3978 99.6013 27.5597 99.4452 32.7476C99.4192 33.7073 98.7427 34.3299 97.884 34.3299C97.0253 34.3039 96.3748 33.6814 96.3488 32.6957C96.2967 30.9059 96.3228 29.1161 96.3228 27.3003C96.3228 26.8853 96.3228 26.4703 96.3228 26.0034C87.762 26.0034 79.2793 26.0034 70.6666 26.0034C70.6405 26.4443 70.6145 26.8853 70.6145 27.3003C70.6145 36.7163 70.5885 46.1582 70.6405 55.5741C70.6405 56.7154 70.3283 57.5974 69.5997 58.4793C63.2507 65.8979 56.9538 73.3425 50.6048 80.7352C48.289 83.4069 46.6757 86.3121 46.6757 89.9436C46.6757 98.1664 54.2737 104.521 62.5742 102.498C65.3063 101.824 67.5181 100.397 69.3655 98.322C69.5737 98.0885 69.7558 97.8551 69.99 97.6216C70.7967 96.7656 71.6553 96.6619 72.3579 97.2844C73.0084 97.881 73.0604 98.7629 72.3839 99.593C69.7038 102.939 66.2951 105.092 62.0278 105.767C61.7936 105.792 61.5854 105.896 61.3512 105.974C60.2584 106 59.2176 106 58.1767 106ZM81.8293 17.21C80.5543 17.21 79.3834 17.21 78.1865 17.21C78.0824 19.1035 77.9783 20.8934 77.8742 22.735C79.2533 22.735 80.5023 22.735 81.8033 22.735C81.8293 20.8415 81.8293 19.0517 81.8293 17.21ZM85.0819 17.1581C85.0819 19.1035 85.0819 20.8934 85.0819 22.735C86.4089 22.735 87.6579 22.735 89.011 22.735C88.8809 20.8155 88.7768 18.9998 88.6727 17.1581C87.3717 17.1581 86.2528 17.1581 85.0819 17.1581ZM75.064 17.1322C74.2834 17.1322 73.6329 17.0025 73.0604 17.184C72.5921 17.3397 71.9416 17.7547 71.8375 18.1697C71.4472 19.6483 71.213 21.1787 70.9268 22.8129C72.1237 22.8129 73.2166 22.8388 74.3094 22.7869C74.4916 22.7869 74.7778 22.4756 74.7778 22.2681C74.8819 20.608 74.9599 18.922 75.064 17.1322ZM95.9585 22.761C95.6202 21.1009 95.386 19.5186 94.9957 18.0141C94.9176 17.6509 94.3712 17.2619 93.9549 17.184C93.3044 17.0543 92.6018 17.1581 91.7952 17.1581C91.8993 19.1035 92.0294 20.9193 92.1335 22.8388C93.1222 22.8388 93.9809 22.8388 94.8396 22.8388C95.1518 22.8129 95.4641 22.7869 95.9585 22.761Z" fill="#141414"/>
<path d="M51.5694 62.8278C50.0065 60.9086 48.9906 58.756 48.4696 56.344C46.9327 49.2897 51.908 41.4832 59.0193 40.0049C60.0612 39.7974 60.3999 39.4343 60.3999 38.3451C60.3478 29.994 60.3738 21.6429 60.3738 13.2917C60.3738 12.8768 60.3738 12.4878 60.3738 12.0209C51.7517 12.0209 43.2599 12.0209 34.6118 12.0209C34.6118 12.4359 34.6118 12.8249 34.6118 13.2399C34.6118 22.7581 34.6118 32.3022 34.6378 41.8204C34.6378 42.78 34.3773 43.5321 33.7522 44.2583C30.3398 48.2004 26.9535 52.1944 23.5411 56.1625C22.7597 57.0702 21.9261 57.1999 21.1707 56.6034C20.4153 56.0069 20.3893 55.0473 21.1707 54.1395C24.4007 50.353 27.6568 46.5665 30.8608 42.754C31.1994 42.365 31.4338 41.7166 31.4338 41.1979C31.4599 31.2129 31.3557 21.2538 31.538 11.2688C31.5901 8.44188 32.3195 5.61495 32.9968 2.83989C33.4396 0.946632 35.0546 0.0389027 36.9301 0.0389027C43.9893 -0.0129676 51.0484 -0.0129676 58.0815 0.0389027C60.0873 0.0389027 61.7023 1.36159 62.1191 3.30673C62.8484 6.70423 63.4996 10.1017 63.4736 13.6289C63.3954 24.7551 63.4215 35.8553 63.4996 46.9815C63.5257 51.546 62.1191 55.4622 59.1235 58.9375C51.361 67.963 43.6767 77.0662 35.9403 86.1175C29.35 93.8203 18.1751 93.9759 11.3504 86.4806C6.53141 81.1899 6.16673 72.4757 10.6471 66.6662C12.3923 64.3839 14.2939 62.2313 16.2215 60.1046C16.6122 59.6637 17.4458 59.3525 17.9928 59.4303C19.191 59.6119 19.4776 60.9864 18.5919 62.0498C17.055 63.8912 15.4921 65.6807 13.9553 67.4961C10.6992 71.3086 9.81353 75.5879 11.3504 80.334C13.4343 86.6362 20.8581 90.345 27.2661 88.322C29.6886 87.544 31.7204 86.2213 33.3354 84.3021C39.3266 77.2996 45.2917 70.2971 51.2568 63.2946C51.3871 63.165 51.4652 63.0094 51.5694 62.8278ZM53.5491 60.2862C58.9411 55.6697 61.4418 49.9899 60.1394 42.8837C56.3623 43.7396 53.6012 45.9959 52.1685 49.6528C50.6837 53.4393 51.2308 57.0183 53.5491 60.2862ZM49.0948 3.15112C49.0948 5.07031 49.0948 6.88577 49.0948 8.77904C50.3972 8.77904 51.6736 8.77904 53.0542 8.77904C52.95 6.85984 52.8458 5.01844 52.7155 3.15112C51.4392 3.15112 50.3191 3.15112 49.0948 3.15112ZM45.8387 8.77904C45.8387 6.8339 45.8387 5.01844 45.8387 3.17705C44.6405 3.17705 43.4683 3.17705 42.244 3.17705C42.1398 5.07031 42.0356 6.91171 41.9314 8.77904C43.2859 8.77904 44.5363 8.77904 45.8387 8.77904ZM55.8674 3.12518C55.9716 4.94064 56.0498 6.65236 56.18 8.36407C56.18 8.51968 56.4405 8.80497 56.5968 8.80497C57.7169 8.83091 58.8369 8.83091 60.0352 8.83091C59.7226 7.19699 59.4621 5.74463 59.2016 4.29226C59.0714 3.59201 58.6546 3.17705 57.9252 3.15112C57.274 3.07331 56.6228 3.12518 55.8674 3.12518ZM38.7795 8.77904C38.8837 6.8339 38.9879 4.99251 39.0921 3.09925C38.3107 3.09925 37.6855 3.02144 37.0864 3.12518C36.6957 3.20299 36.0705 3.46234 35.9923 3.74762C35.5756 5.38154 35.263 7.04138 34.9244 8.77904C36.331 8.77904 37.5032 8.77904 38.7795 8.77904Z" fill="#141414"/>
<path d="M87.6802 76.3638C85.8927 74.1695 84.8046 71.6911 84.4419 68.903C83.5611 61.8811 88.2761 55.1172 95.219 53.5683C96.0998 53.3876 96.4366 53.0778 96.4107 52.0968C96.3329 48.1469 96.3848 44.1971 96.3848 40.2472C96.3848 39.86 96.3848 39.4985 96.4884 39.1371C96.6956 38.3626 97.2397 37.9754 98.0169 38.0012C98.82 38.027 99.364 38.5175 99.4676 39.3436C99.5194 39.6534 99.4935 39.9632 99.4935 40.273C99.4935 47.1659 99.4676 54.0846 99.4935 60.9775C99.5194 65.1855 98.1723 68.8514 95.4521 72.0268C89.5196 78.9713 83.6129 85.9158 77.7062 92.8603C77.4731 93.1185 77.2658 93.3766 76.9809 93.609C76.3591 94.0995 75.7114 94.1511 75.0897 93.6348C74.442 93.1185 74.3384 92.4214 74.727 91.6986C74.8824 91.3888 75.1156 91.1306 75.3488 90.8725C79.2347 86.303 83.1207 81.7594 86.9807 77.19C87.2139 76.9576 87.4211 76.6736 87.6802 76.3638ZM96.1516 56.4855C91.877 57.5698 89.0273 60.203 87.8356 64.5401C86.903 67.9478 87.6025 71.0716 89.6232 73.8081C95.0117 69.187 97.4469 63.5591 96.1516 56.4855Z" fill="#141414"/>
</svg>
