<svg width="21" height="19" viewBox="0 0 21 19" fill="none" xmlns="http://www.w3.org/2000/svg">
<path d="M11.0014 3.2004L10.6703 2.90516L10.6345 2.87316C10.0186 2.32721 9.28811 1.92642 8.49677 1.70035C7.70544 1.47428 6.87346 1.42867 6.06217 1.5669L11.0014 3.2004ZM11.0014 3.2004L11.334 2.90693M11.0014 3.2004L11.334 2.90693M11.334 2.90693L11.367 2.87782C11.3671 2.8777 11.3672 2.87759 11.3673 2.87747C11.955 2.36183 12.6459 1.97741 13.3939 1.74984C14.1408 1.5226 14.9275 1.45698 15.7017 1.55732L15.9373 1.59179C16.9124 1.7613 17.8237 2.19081 18.5752 2.83507C19.3282 3.48069 19.8926 4.31794 20.2087 5.25815C20.5247 6.19837 20.5806 7.20655 20.3704 8.17594C20.1606 9.14369 19.6934 10.0368 19.0182 10.7611L18.8579 10.9258L18.8274 10.9518L18.8134 10.9638M11.334 2.90693L18.8134 10.9638M18.8134 10.9638L18.8003 10.9768M18.8134 10.9638L18.8003 10.9768M18.8003 10.9768L11.3504 18.3556C11.2645 18.4407 11.1506 18.4918 11.0299 18.4993C10.9134 18.5066 10.7983 18.4729 10.7042 18.4043L10.6358 18.3446L3.15402 10.9338L3.15403 10.9338M18.8003 10.9768L3.15403 10.9338M3.15403 10.9338L3.15083 10.9307M3.15403 10.9338L3.15083 10.9307M3.15083 10.9307C2.4232 10.2227 1.90572 9.32711 1.65571 8.34315M3.15083 10.9307L1.65571 8.34315M1.65571 8.34315C1.4057 7.35919 1.43291 6.32522 1.73432 5.35577M1.65571 8.34315L1.73432 5.35577M1.73432 5.35577C2.03574 4.38632 2.5996 3.51922 3.36346 2.85049M1.73432 5.35577L3.36346 2.85049M3.36346 2.85049C4.12732 2.18176 5.06135 1.7375 6.06213 1.56691L3.36346 2.85049Z" fill="#141414" stroke="#141414"/>
</svg>
