<svg width="66" height="16" viewBox="0 0 66 16" fill="none" xmlns="http://www.w3.org/2000/svg">
<g clip-path="url(#clip0_857_2507)">
<path fill-rule="evenodd" clip-rule="evenodd" d="M24.8686 4.05396H21.219V6.63425H24.7395V8.15752H21.219V13.2702H19.6387V2.53052H24.8686V4.05396Z" fill="#A3A3A3"/>
<path fill-rule="evenodd" clip-rule="evenodd" d="M27.7854 7.86924C27.7854 9.05568 28.1744 10.0307 28.9523 10.7952C29.7255 11.5595 30.6185 11.9418 31.6315 11.9418C32.7304 11.9418 33.6574 11.5528 34.4126 10.7746C35.1678 9.98664 35.5456 9.02754 35.5456 7.89738C35.5456 6.75298 35.1724 5.79392 34.4263 5.02005C33.6845 4.24165 32.7665 3.85254 31.6721 3.85254C30.5823 3.85254 29.6621 4.24165 28.9114 5.02005C28.1608 5.78906 27.7854 6.73908 27.7854 7.86924ZM26.1914 7.85187C26.1914 6.34041 26.7317 5.04211 27.8125 3.95711C28.8888 2.8716 30.182 2.3291 31.6926 2.3291C33.1849 2.3291 34.4646 2.87646 35.5319 3.971C36.6037 5.06504 37.1396 6.37985 37.1396 7.91475C37.1396 9.45873 36.6014 10.7687 35.5251 11.8446C34.4443 12.9251 33.1395 13.4649 31.6111 13.4649C30.2591 13.4649 29.0449 12.9852 27.9687 12.0254C26.7836 10.9634 26.1914 9.57242 26.1914 7.85187Z" fill="#A3A3A3"/>
<path fill-rule="evenodd" clip-rule="evenodd" d="M51.2505 11.7467H51.9626C52.6728 11.7467 53.2628 11.6701 53.7331 11.517C54.2036 11.3549 54.6287 11.0974 55.0084 10.7451C55.7862 10.0171 56.1751 9.06881 56.1751 7.90025C56.1751 6.72232 55.7907 5.76726 55.022 5.03438C54.3301 4.38071 53.3102 4.05396 51.9626 4.05396H51.2505V11.7467ZM49.6699 13.2702V2.53052H51.8678C52.9213 2.53052 53.7535 2.63735 54.364 2.85049C55.0196 3.05912 55.6144 3.41401 56.1479 3.91482C57.2287 4.92546 57.7692 6.25417 57.7692 7.90025C57.7692 9.55083 57.2062 10.8866 56.0801 11.9065C55.5149 12.4167 54.9225 12.7713 54.303 12.9709C53.724 13.1703 52.9034 13.2702 51.8405 13.2702H49.6699Z" fill="#A3A3A3"/>
<path fill-rule="evenodd" clip-rule="evenodd" d="M60.8348 8.6306L57.416 2.53076H59.2341L61.6285 6.82228L64.0297 2.53076H65.8477L62.4152 8.6306V13.2702H60.8348V8.6306Z" fill="#A3A3A3"/>
<path fill-rule="evenodd" clip-rule="evenodd" d="M46.2805 2.53027V10.4283L40.14 2.53027H38.6172V13.2697H40.1977V5.35776L46.3381 13.2697H47.8611V2.53027H46.2805Z" fill="#A3A3A3"/>
<mask id="mask0_857_2507" style="mask-type:alpha" maskUnits="userSpaceOnUse" x="0" y="0" width="15" height="16">
<path d="M0.207031 15.2629H14.6529V0.429688H0.207031V15.2629Z" fill="white"/>
</mask>
<g mask="url(#mask0_857_2507)">
<path fill-rule="evenodd" clip-rule="evenodd" d="M7.36805 0.429688L7.15562 0.559275L4.72988 2.04797L4.54082 2.17165V2.41398V4.79816L2.57026 6.00457L2.37393 6.1286V6.37041V8.75476L0.403375 9.96113L0.207031 10.085V10.3272V13.276V13.5182L0.383046 13.6421L2.80913 15.1306L3.01242 15.2584L3.22011 15.1327L5.24047 13.9275L7.23609 15.1317L7.44684 15.259L7.6574 15.1311L9.63336 13.9323L11.5018 15.1261L11.7163 15.263L11.9334 15.1308L14.4145 13.6423L14.6529 13.5184V13.276V10.3272V10.085L14.4566 9.96113L12.486 8.75476V6.37041V6.1286L12.2897 6.00457L10.3191 4.79816V2.41398V2.17165L10.068 2.04797L7.60438 0.559275L7.36805 0.429688ZM7.42972 0.925283L9.88565 2.41398V5.04031L12.0525 6.37041V8.9969L14.2196 10.3272V13.276L11.7476 14.7646L9.65186 13.4345L7.45226 14.7646L5.24335 13.4345L3.04562 14.7646L0.640376 13.276V10.3272L2.8071 8.9969V6.37041L4.97399 5.04031V2.41398L7.42972 0.925283Z" fill="#A3A3A3"/>
</g>
<path fill-rule="evenodd" clip-rule="evenodd" d="M9.30869 5.06029L7.43045 6.23232L5.55273 5.06029V2.71677L7.43045 1.54492L9.30869 2.71677V5.06029Z" fill="#A3A3A3"/>
<path fill-rule="evenodd" clip-rule="evenodd" d="M9.30869 12.9734L7.43045 14.1453L5.55273 12.9734V10.6299L7.43045 9.45801L9.30869 10.6299V12.9734Z" fill="#A3A3A3"/>
<path fill-rule="evenodd" clip-rule="evenodd" d="M13.6427 12.9734L11.7646 14.1453L9.88672 12.9734V10.6299L11.7646 9.45801L13.6427 10.6299V12.9734Z" fill="#A3A3A3"/>
<path fill-rule="evenodd" clip-rule="evenodd" d="M4.97448 12.9734L3.02427 14.1453L1.07422 12.9734V10.6299L3.02427 9.45801L4.97448 10.6299V12.9734Z" fill="#A3A3A3"/>
<path fill-rule="evenodd" clip-rule="evenodd" d="M7.14265 9.01719L5.26477 10.1889L3.38672 9.01719V6.67332L5.26477 5.50146L7.14265 6.67332V9.01719Z" fill="#A3A3A3"/>
<path fill-rule="evenodd" clip-rule="evenodd" d="M11.4766 9.01719L9.59877 10.1889L7.7207 9.01719V6.67332L9.59877 5.50146L11.4766 6.67332V9.01719Z" fill="#A3A3A3"/>
</g>
<defs>
<clipPath id="clip0_857_2507">
<rect width="66" height="16" fill="white"/>
</clipPath>
</defs>
</svg>
