<svg width="24" height="24" viewBox="0 0 24 24" fill="none" xmlns="http://www.w3.org/2000/svg">
<path d="M6.97815 3.07401C7.86321 2.92321 8.77084 2.97296 9.63412 3.21958C10.4974 3.46621 11.2943 3.90343 11.9662 4.49901L12.0032 4.53201L12.0372 4.50201C12.6783 3.93931 13.4322 3.51981 14.2483 3.27149C15.0645 3.02318 15.9242 2.95177 16.7702 3.06201L17.0162 3.09801C18.0825 3.28212 19.0791 3.75117 19.9006 4.45548C20.7221 5.1598 21.3378 6.07316 21.6826 7.09885C22.0274 8.12454 22.0883 9.22437 21.859 10.2819C21.6298 11.3394 21.1188 12.3152 20.3802 13.106L20.2002 13.291L20.1522 13.332L12.7022 20.711C12.5302 20.8812 12.3025 20.9832 12.061 20.9983C11.8196 21.0134 11.5809 20.9405 11.3892 20.793L11.2952 20.711L3.80215 13.289C3.00837 12.5167 2.44385 11.5397 2.17111 10.4663C1.89837 9.39287 1.92805 8.26491 2.25687 7.20733C2.58569 6.14974 3.20081 5.20381 4.03411 4.47428C4.86741 3.74476 5.88638 3.26011 6.97815 3.07401Z" fill="#141414"/>
</svg>
