<svg width="96" height="96" viewBox="0 0 96 96" fill="none" xmlns="http://www.w3.org/2000/svg">
<g clip-path="url(#clip0_1159_6866)">
<circle cx="48" cy="48" r="48" fill="#D3F8E5"/>
<g clip-path="url(#clip1_1159_6866)">
<path fill-rule="evenodd" clip-rule="evenodd" d="M65.998 37.708C66.064 34.748 64.556 32.16 62.332 30.864C60.424 29.752 58.062 29.65 56 30.938C53.94 29.65 51.576 29.752 49.668 30.864C47.444 32.16 45.936 34.748 46.002 37.708C46.088 41.526 49.044 44.636 53.37 47.206C54.174 47.682 55.032 48.222 56 48.222C56.968 48.222 57.826 47.682 58.63 47.206C62.956 44.636 65.912 41.526 65.998 37.708ZM40.778 48.656L36.798 51.142C36.0509 50.4097 35.0461 50.0003 34 50.002H32C30.9391 50.002 29.9217 50.4234 29.1716 51.1736C28.4214 51.9237 28 52.9411 28 54.002V62.002C28 63.0629 28.4214 64.0803 29.1716 64.8304C29.9217 65.5806 30.9391 66.002 32 66.002H34C34.7021 66.002 35.3919 65.8172 35.9999 65.4661C36.608 65.115 37.1129 64.6101 37.464 64.002H39.056C39.3663 64.0017 39.6723 64.0736 39.95 64.212L44.65 66.562C46.6394 67.5561 48.9034 67.8588 51.084 67.422L57.504 66.14C58.3817 65.9646 59.2088 65.5941 59.924 65.056L66.066 60.45C66.6663 59.9999 67.1535 59.4162 67.4892 58.7452C67.8249 58.0742 67.9998 57.3343 68 56.584V56.472C68 52.932 64.274 50.628 61.106 52.212C59.726 52.902 58.452 53.962 57.17 54.818C57.91 52.592 56.732 50.122 54.39 49.538L46.958 47.678C45.915 47.4174 44.8302 47.3697 43.7684 47.5378C42.7066 47.7058 41.6895 48.0861 40.778 48.656Z" fill="#19B080"/>
</g>
</g>
<defs>
<clipPath id="clip0_1159_6866">
<rect width="96" height="96" fill="white"/>
</clipPath>
<clipPath id="clip1_1159_6866">
<rect width="48" height="48" fill="white" transform="translate(24 24)"/>
</clipPath>
</defs>
</svg>
