<svg width="96" height="96" viewBox="0 0 96 96" fill="none" xmlns="http://www.w3.org/2000/svg">
<g clip-path="url(#clip0_1159_6876)">
<circle cx="48" cy="48" r="48" fill="#D3F8E5"/>
<g clip-path="url(#clip1_1159_6876)">
<path d="M44.48 30.418C45.8547 30.9915 47.0945 31.8457 48.12 32.926C49.1621 31.9015 50.3864 31.0807 51.73 30.506C53.724 29.68 56.01 29.532 58 30.68C59.988 31.828 61.006 33.884 61.288 36.022C61.468 37.398 61.364 38.878 60.994 40.362C62.4421 40.7081 63.8019 41.3533 64.986 42.256C66.746 43.624 68 45.632 68 48C68 50.356 66.76 52.356 65.014 53.72C63.8696 54.6014 62.5575 55.2404 61.158 55.598C61.552 57.04 61.658 58.504 61.462 59.874C61.15 62.068 60.042 64.142 58.002 65.32C55.948 66.506 53.582 66.42 51.52 65.582C50.1459 65.0084 48.9068 64.1542 47.882 63.074C46.782 64.134 45.552 64.966 44.27 65.494C42.276 66.32 39.99 66.468 38 65.32C36.012 64.172 34.996 62.116 34.712 59.978C34.5385 58.5256 34.6382 57.0536 35.006 55.638C33.558 55.2915 32.1983 54.6464 31.014 53.744C29.254 52.376 28 50.37 28 48C28 45.644 29.24 43.646 30.986 42.28C32.1296 41.3981 33.441 40.7584 34.84 40.4C34.4494 39.0101 34.346 37.5552 34.536 36.124C34.85 33.932 35.958 31.858 38 30.68C40.052 29.496 42.418 29.58 44.48 30.418ZM48 40C45.8783 40 43.8434 40.8428 42.3431 42.3431C40.8429 43.8434 40 45.8782 40 48C40 50.1217 40.8429 52.1565 42.3431 53.6568C43.8434 55.1571 45.8783 56 48 56C50.1217 56 52.1566 55.1571 53.6569 53.6568C55.1571 52.1565 56 50.1217 56 48C56 45.8782 55.1571 43.8434 53.6569 42.3431C52.1566 40.8428 50.1217 40 48 40ZM48 44C49.0609 44 50.0783 44.4214 50.8284 45.1715C51.5786 45.9217 52 46.9391 52 48C52 49.0608 51.5786 50.0783 50.8284 50.8284C50.0783 51.5785 49.0609 52 48 52C46.9391 52 45.9217 51.5785 45.1716 50.8284C44.4214 50.0783 44 49.0608 44 48C44 46.9391 44.4214 45.9217 45.1716 45.1715C45.9217 44.4214 46.9391 44 48 44Z" fill="#19B080"/>
</g>
</g>
<defs>
<clipPath id="clip0_1159_6876">
<rect width="96" height="96" fill="white"/>
</clipPath>
<clipPath id="clip1_1159_6876">
<rect width="48" height="48" fill="white" transform="translate(24 24)"/>
</clipPath>
</defs>
</svg>
