<svg width="38" height="36" viewBox="0 0 38 36" fill="none" xmlns="http://www.w3.org/2000/svg">
<path d="M12.7365 11.2332L2.10315 12.7749L1.91481 12.8132C1.62971 12.8889 1.3698 13.0389 1.16163 13.2479C0.953461 13.4569 0.804484 13.7174 0.729915 14.0027C0.655346 14.2881 0.657857 14.5882 0.737191 14.8723C0.816525 15.1564 0.969839 15.4144 1.18148 15.6199L8.88481 23.1182L7.06814 33.7099L7.04648 33.8932C7.02903 34.1881 7.09025 34.4823 7.22389 34.7457C7.35753 35.0091 7.55878 35.2323 7.80704 35.3924C8.05529 35.5525 8.34163 35.6437 8.63672 35.6567C8.93182 35.6697 9.22508 35.6041 9.48648 35.4665L18.9965 30.4665L28.4848 35.4665L28.6515 35.5432C28.9266 35.6516 29.2256 35.6848 29.5177 35.6395C29.8099 35.5941 30.0848 35.4719 30.3141 35.2853C30.5435 35.0987 30.7191 34.8545 30.8229 34.5776C30.9267 34.3007 30.9549 34.0013 30.9048 33.7099L29.0865 23.1182L36.7931 15.6182L36.9231 15.4765C37.1088 15.2478 37.2306 14.974 37.276 14.6829C37.3214 14.3918 37.2888 14.0938 37.1816 13.8194C37.0744 13.545 36.8964 13.3039 36.6656 13.1207C36.4349 12.9375 36.1597 12.8188 35.8681 12.7765L25.2348 11.2332L20.4815 1.59987C20.3439 1.32076 20.131 1.08573 19.8668 0.921378C19.6026 0.757027 19.2976 0.669922 18.9865 0.669922C18.6753 0.669922 18.3704 0.757027 18.1062 0.921378C17.8419 1.08573 17.629 1.32076 17.4915 1.59987L12.7365 11.2332Z" fill="#FCB539"/>
</svg>
