<svg width="20" height="20" viewBox="0 0 20 20" fill="none" xmlns="http://www.w3.org/2000/svg">
<path d="M10.0085 1.67603C10.6567 1.67606 11.2826 1.91217 11.7693 2.34019L11.8977 2.46103L12.4793 3.04269C12.639 3.20129 12.8474 3.3014 13.071 3.32686L13.1835 3.33353H14.0168C14.6979 3.33349 15.3531 3.594 15.8482 4.06164C16.3432 4.52928 16.6406 5.16861 16.6793 5.84853L16.6835 6.00019V6.83353C16.6835 7.05853 16.7602 7.27769 16.8985 7.45269L16.9735 7.53603L17.5543 8.11769C18.0358 8.5964 18.3165 9.24071 18.3393 9.91925C18.362 10.5978 18.1251 11.2595 17.6768 11.7694L17.556 11.8977L16.9743 12.4794C16.8158 12.639 16.7156 12.8475 16.6902 13.071L16.6835 13.1835V14.0169C16.6836 14.6979 16.423 15.3531 15.9554 15.8482C15.4878 16.3432 14.8484 16.6406 14.1685 16.6794L14.0168 16.6835H13.1835C12.9588 16.6836 12.7407 16.7593 12.5643 16.8985L12.481 16.9735L11.8993 17.5544C11.4206 18.0358 10.7763 18.3165 10.0978 18.3393C9.41925 18.362 8.75758 18.1251 8.24768 17.6769L8.11935 17.556L7.53768 16.9744C7.37805 16.8158 7.16959 16.7156 6.94601 16.6902L6.83351 16.6835H6.00018C5.31917 16.6836 4.66394 16.4231 4.16887 15.9554C3.67381 15.4878 3.37641 14.8484 3.33768 14.1685L3.33351 14.0169V13.1835C3.33344 12.9588 3.2577 12.7407 3.11851 12.5644L3.04351 12.481L2.46268 11.8994C1.98125 11.4207 1.70053 10.7763 1.67777 10.0978C1.65501 9.41926 1.89191 8.75759 2.34018 8.24769L2.46101 8.11936L3.04268 7.53769C3.20127 7.37806 3.30139 7.1696 3.32685 6.94603L3.33351 6.83353V6.00019L3.33768 5.84853C3.37489 5.19473 3.65137 4.57748 4.11442 4.11443C4.57747 3.65138 5.19472 3.3749 5.84851 3.33769L6.00018 3.33353H6.83351C7.0582 3.33345 7.27631 3.25771 7.45268 3.11853L7.53601 3.04353L8.11768 2.46269C8.36546 2.21343 8.66007 2.01561 8.98457 1.88061C9.30907 1.7456 9.65705 1.67608 10.0085 1.67603ZM13.0893 7.74436C12.9331 7.58813 12.7212 7.50037 12.5002 7.50037C12.2792 7.50037 12.0673 7.58813 11.911 7.74436L9.16685 10.4877L8.08935 9.41103L8.01101 9.34186C7.84352 9.21235 7.63301 9.15145 7.42224 9.17153C7.21147 9.1916 7.01625 9.29116 6.87622 9.44996C6.73619 9.60877 6.66186 9.81491 6.66832 10.0265C6.67479 10.2382 6.76156 10.4394 6.91101 10.5894L8.57768 12.256L8.65601 12.3252C8.81635 12.4496 9.01656 12.5112 9.21908 12.4984C9.4216 12.4857 9.61252 12.3995 9.75601 12.256L13.0893 8.92269L13.1585 8.84436C13.2829 8.68402 13.3445 8.48381 13.3318 8.28129C13.319 8.07877 13.2328 7.88785 13.0893 7.74436Z" fill="#0B5A45"/>
</svg>
