<svg width="54" height="16" viewBox="0 0 54 16" fill="none" xmlns="http://www.w3.org/2000/svg">
<g clip-path="url(#clip0_857_2499)">
<path d="M21.4486 0.530273L18.7402 15.5777H23.0692L25.7776 0.530273H21.4486Z" fill="#A3A3A3"/>
<path d="M15.1053 0.548115L10.8643 10.8107L10.4239 9.25941C9.58717 7.39538 7.21346 4.71402 4.42578 3.00429L8.30563 15.5562H12.8857L19.6942 0.543945L15.1053 0.548115Z" fill="#A3A3A3"/>
<path d="M8.77135 1.6247C8.52033 0.690575 7.78928 0.436194 6.88208 0.402832H0.170531L0.113281 0.690575C5.34071 1.89159 8.79777 4.78153 10.2422 8.25947L8.77135 1.6247Z" fill="#A3A3A3"/>
<path d="M34.5596 3.41671C35.6705 3.39372 36.7742 3.5897 37.8009 3.99222L38.1884 4.16738L38.7741 0.906146C37.534 0.477842 36.223 0.263159 34.9031 0.27225C30.6181 0.27225 27.6015 2.31156 27.575 5.23916C27.5486 7.39942 29.7241 8.613 31.38 9.32613C33.0359 10.0393 33.6304 10.5355 33.626 11.1945C33.626 12.1995 32.2784 12.6624 31.0321 12.6624C29.6266 12.7024 28.2306 12.4325 26.9541 11.8742L26.3992 11.6365L25.7871 15.002C27.3375 15.5438 28.9788 15.8151 30.6313 15.8027C35.185 15.8027 38.1444 13.7884 38.1752 10.6606C38.1752 8.9508 37.039 7.64964 34.5332 6.57785C33.0182 5.87723 32.0934 5.41432 32.1022 4.70953C32.0758 4.08397 32.8641 3.41671 34.5596 3.41671Z" fill="#A3A3A3"/>
<path d="M49.8752 0.547607H46.5284C45.489 0.547607 44.7183 0.814511 44.2603 1.79872L37.8438 15.586H42.3886C42.3886 15.586 43.1284 13.7302 43.2958 13.3256H48.8447C48.9724 13.8511 49.3732 15.5776 49.3732 15.5776H53.3984L49.8752 0.547607ZM44.5466 10.2479C44.9033 9.38463 46.2729 6.03999 46.2729 6.03999C46.2729 6.03999 46.6252 5.17255 46.8498 4.60538L47.1404 5.90237C47.1404 5.90237 47.9728 9.49306 48.1446 10.2479H44.5466Z" fill="#A3A3A3"/>
</g>
<defs>
<clipPath id="clip0_857_2499">
<rect width="54" height="16" fill="white"/>
</clipPath>
</defs>
</svg>
