<svg width="322" height="143" viewBox="0 0 322 143" fill="none" xmlns="http://www.w3.org/2000/svg">
<path fill-rule="evenodd" clip-rule="evenodd" d="M69.7453 136H199.807C200.542 136 201.26 135.921 201.95 135.77C202.641 135.921 203.358 136 204.094 136H278.415C283.941 136 288.42 131.523 288.42 126C288.42 120.477 283.941 116 278.415 116H269.84C264.314 116 259.835 111.523 259.835 106C259.835 100.477 264.314 96 269.84 96H296.995C302.521 96 307 91.5229 307 86C307 80.4772 302.521 76 296.995 76H265.552C271.077 76 275.557 71.5229 275.557 66C275.557 60.4772 271.077 56 265.552 56H174.08C179.606 56 184.085 51.5228 184.085 46C184.085 40.4772 179.606 36 174.08 36H92.6132C87.0878 36 82.6085 40.4772 82.6085 46C82.6085 51.5228 87.0878 56 92.6132 56H35.4434C29.9179 56 25.4387 60.4772 25.4387 66C25.4387 71.5229 29.9179 76 35.4434 76H71.1745C76.7 76 81.1792 80.4772 81.1792 86C81.1792 91.5229 76.7 96 71.1745 96H14.0047C8.47926 96 4 100.477 4 106C4 111.523 8.47926 116 14.0047 116H69.7453C64.2198 116 59.7406 120.477 59.7406 126C59.7406 131.523 64.2198 136 69.7453 136ZM303 136C308.523 136 313 131.523 313 126C313 120.477 308.523 116 303 116C297.477 116 293 120.477 293 126C293 131.523 297.477 136 303 136Z" fill="#F8F5F0"/>
<g clip-path="url(#clip0_4017_15554)">
<path d="M182.9 41C200.91 41 213 55.6213 213 73.6778C213 94.1698 184.459 118.653 160.007 135C135.547 118.653 107.338 93.7767 107.006 73.6778C106.707 55.6213 118.362 41 136.373 41C144.058 41 151.854 45.0762 160.007 53.2456C168.16 45.0762 175.215 41 182.9 41Z" fill="#D3F8E5"/>
</g>
<path d="M206.5 16C208.985 16 211 13.9853 211 11.5C211 9.01472 208.985 7 206.5 7C204.015 7 202 9.01472 202 11.5C202 13.9853 204.015 16 206.5 16Z" stroke="#0B5A45" stroke-width="2.86077"/>
<path d="M217 27L228.82 39M229 27L217.18 39L229 27Z" stroke="#0B5A45" stroke-width="3.57597" stroke-linecap="round" stroke-linejoin="round"/>
<path d="M82 52L91 61M91 52L82 61L91 52Z" stroke="#0B5A45" stroke-width="3.57597" stroke-linecap="round" stroke-linejoin="round"/>
<path d="M105.285 38.5C105.285 40.5903 103.59 42.2848 101.5 42.2848C99.4097 42.2848 97.7152 40.5903 97.7152 38.5C97.7152 36.4097 99.4097 34.7152 101.5 34.7152C103.59 34.7152 105.285 36.4097 105.285 38.5Z" stroke="#0B5A45" stroke-width="1.43039"/>
<path d="M136.384 42C118.204 42 106 56.6213 106 74.6778C106 94.8883 134.024 118.981 158.473 135.322C159.093 135.736 159.893 135.736 160.512 135.322C184.961 118.97 212.664 94.5007 212.994 74.6778C213.295 56.6213 201.53 42 183.35 42C176.01 42 168.57 45.6492 160.819 52.9621C160.077 53.6623 158.909 53.6624 158.17 52.9588C150.492 45.6481 143.723 42 136.384 42Z" stroke="#0B5A45" stroke-width="3.09561" stroke-linecap="round"/>
<path d="M182 128C187.523 128 192 123.523 192 118C192 112.477 187.523 108 182 108C176.477 108 172 112.477 172 118C172 123.523 176.477 128 182 128Z" fill="#F8F5F0" stroke="#0B5A45" stroke-width="2.73268"/>
<path d="M182 123.15C179.691 123.15 178.229 121.237 178.229 118.218C178.229 115.198 179.691 113.285 182 113.285C184.31 113.285 185.772 115.198 185.772 118.218C185.772 121.237 184.31 123.15 182 123.15ZM182 121.565C183.285 121.565 183.995 120.349 183.995 118.218C183.995 116.086 183.285 114.87 182 114.87C180.716 114.87 179.992 116.086 179.992 118.218C179.992 120.349 180.716 121.565 182 121.565Z" fill="#0B5A45"/>
<defs>
<clipPath id="clip0_4017_15554">
<rect width="60" height="109" fill="white" transform="translate(99 34)"/>
</clipPath>
</defs>
</svg>
