<svg width="567" height="386" viewBox="0 0 567 386" fill="none" xmlns="http://www.w3.org/2000/svg">
<path fill-rule="evenodd" clip-rule="evenodd" d="M136.387 234H345.858C347.044 234 348.199 233.872 349.311 233.63C350.424 233.872 351.579 234 352.764 234H472.462C481.361 234 488.575 226.792 488.575 217.9C488.575 209.008 481.361 201.8 472.462 201.8H458.651C449.752 201.8 442.538 194.592 442.538 185.7C442.538 176.808 449.752 169.6 458.651 169.6H502.387C511.286 169.6 518.5 162.392 518.5 153.5C518.5 144.608 511.286 137.4 502.387 137.4H451.745C460.644 137.4 467.858 130.192 467.858 121.3C467.858 112.408 460.644 105.2 451.745 105.2H304.425C313.324 105.2 320.538 97.9918 320.538 89.1C320.538 80.2082 313.324 73 304.425 73H173.217C164.318 73 157.104 80.2082 157.104 89.1C157.104 97.9918 164.318 105.2 173.217 105.2H81.1415C72.2424 105.2 65.0283 112.408 65.0283 121.3C65.0283 130.192 72.2424 137.4 81.1415 137.4H138.689C147.588 137.4 154.802 144.608 154.802 153.5C154.802 162.392 147.588 169.6 138.689 169.6H46.6132C37.7141 169.6 30.5 176.808 30.5 185.7C30.5 194.592 37.7141 201.8 46.6132 201.8H136.387C127.488 201.8 120.274 209.008 120.274 217.9C120.274 226.792 127.488 234 136.387 234ZM511.5 234C520.337 234 527.5 226.837 527.5 218C527.5 209.163 520.337 202 511.5 202C502.663 202 495.5 209.163 495.5 218C495.5 226.837 502.663 234 511.5 234Z" fill="#F8F5F0"/>
<path d="M375.398 267H427.058M138.149 267H187.566H138.149ZM108.5 267H124.329H108.5ZM437.885 267H444.5H437.885Z" stroke="#0B5A45" stroke-width="5.75188" stroke-linecap="round" stroke-linejoin="round"/>
<path d="M216.5 26.0148L242.066 55M336.5 26.0148L310.934 55L336.5 26.0148ZM276.385 16V55V16Z" stroke="#D3F8E5" stroke-width="5.75188" stroke-linecap="round" stroke-linejoin="round"/>
<path fill-rule="evenodd" clip-rule="evenodd" d="M204.782 90H348.218L335.373 109.2L352.5 122H200.5L219.768 109.2L204.782 90Z" fill="#D3F8E5"/>
<rect x="196.5" y="118" width="163" height="172" rx="4.6015" fill="white"/>
<path fill-rule="evenodd" clip-rule="evenodd" d="M207.5 211.789V132.886C207.5 129.635 210.165 127 213.452 127L353.5 274.152C353.5 278.486 350.03 282 345.749 282H215.251C210.97 282 207.5 278.486 207.5 274.152V244.829V236.873V211.789ZM207.5 228.824V219.987V228.824Z" fill="#D3F8E5"/>
<path d="M198.5 212.994V126.456C198.5 122.89 201.42 120 205.023 120H354.253C356.598 120 358.5 121.927 358.5 124.304V281.392C358.5 286.146 354.697 290 350.005 290H206.995C202.303 290 198.5 286.146 198.5 281.392V249.232V240.506M198.5 231.678V221.986" stroke="#0B5A45" stroke-width="5.75188" stroke-linecap="round"/>
<path d="M203.5 120V94.2857C203.5 91.9188 205.222 90 207.346 90L349.654 90C351.778 90 353.5 91.9188 353.5 94.2857V120" stroke="#0B5A45" stroke-width="5.75188"/>
<path d="M243 165C247.142 165 250.5 161.642 250.5 157.5C250.5 153.358 247.142 150 243 150C238.858 150 235.5 153.358 235.5 157.5C235.5 161.642 238.858 165 243 165Z" fill="#D3F8E5" stroke="#0B5A45" stroke-width="5.75188" stroke-linecap="round"/>
<path d="M314 165C318.142 165 321.5 161.642 321.5 157.5C321.5 153.358 318.142 150 314 150C309.858 150 306.5 153.358 306.5 157.5C306.5 161.642 309.858 165 314 165Z" fill="#D3F8E5" stroke="#0B5A45" stroke-width="5.75188" stroke-linecap="round"/>
<path d="M312.5 166C312.5 184.778 297.054 200 278 200C258.946 200 243.5 184.778 243.5 166" stroke="#0B5A45" stroke-width="5.75188" stroke-linecap="round"/>
<path d="M205.768 92L220.819 106.964C221.719 107.858 221.728 109.317 220.84 110.223C220.687 110.38 220.512 110.514 220.32 110.62L203.5 120" stroke="#0B5A45" stroke-width="5.75188" stroke-linecap="round"/>
<path d="M351.292 92L337.143 106.878C336.274 107.792 336.288 109.26 337.174 110.156C337.322 110.305 337.489 110.433 337.671 110.535L354.5 120" stroke="#0B5A45" stroke-width="5.75188" stroke-linecap="round"/>
</svg>
