<svg width="576" height="460" viewBox="0 0 576 460" fill="none" xmlns="http://www.w3.org/2000/svg">
<path fill-rule="evenodd" clip-rule="evenodd" d="M145.387 308H354.858C356.044 308 357.199 307.872 358.311 307.63C359.424 307.872 360.579 308 361.764 308H481.462C490.361 308 497.575 300.792 497.575 291.9C497.575 283.008 490.361 275.8 481.462 275.8H467.651C458.752 275.8 451.538 268.592 451.538 259.7C451.538 250.808 458.752 243.6 467.651 243.6H511.387C520.286 243.6 527.5 236.392 527.5 227.5C527.5 218.608 520.286 211.4 511.387 211.4H460.745C469.644 211.4 476.858 204.192 476.858 195.3C476.858 186.408 469.644 179.2 460.745 179.2H313.425C322.324 179.2 329.538 171.992 329.538 163.1C329.538 154.208 322.324 147 313.425 147H182.217C173.318 147 166.104 154.208 166.104 163.1C166.104 171.992 173.318 179.2 182.217 179.2H90.1415C81.2424 179.2 74.0283 186.408 74.0283 195.3C74.0283 204.192 81.2424 211.4 90.1415 211.4H147.689C156.588 211.4 163.802 218.608 163.802 227.5C163.802 236.392 156.588 243.6 147.689 243.6H55.6132C46.7141 243.6 39.5 250.808 39.5 259.7C39.5 268.592 46.7141 275.8 55.6132 275.8H145.387C136.488 275.8 129.274 283.008 129.274 291.9C129.274 300.792 136.488 308 145.387 308ZM520.5 308C529.337 308 536.5 300.837 536.5 292C536.5 283.163 529.337 276 520.5 276C511.663 276 504.5 283.163 504.5 292C504.5 300.837 511.663 308 520.5 308Z" fill="#F8F5F0"/>
<path d="M384.398 341H436.058M147.149 341H196.566H147.149ZM117.5 341H133.329H117.5ZM446.885 341H453.5H446.885Z" stroke="#0B5A45" stroke-width="5.75188" stroke-linecap="round" stroke-linejoin="round"/>
<path d="M225.5 100.015L251.066 129M345.5 100.015L319.934 129L345.5 100.015ZM285.385 90V129V90Z" stroke="#D3F8E5" stroke-width="5.75188" stroke-linecap="round" stroke-linejoin="round"/>
<path fill-rule="evenodd" clip-rule="evenodd" d="M213.782 164H357.218L344.373 183.2L361.5 196H209.5L228.768 183.2L213.782 164Z" fill="#D3F8E5"/>
<rect x="205.5" y="192" width="163" height="172" rx="4.6015" fill="white"/>
<path fill-rule="evenodd" clip-rule="evenodd" d="M216.5 285.789V206.886C216.5 203.635 219.165 201 222.452 201L362.5 348.152C362.5 352.486 359.03 356 354.749 356H224.251C219.97 356 216.5 352.486 216.5 348.152V318.829V310.873V285.789ZM216.5 302.824V293.987V302.824Z" fill="#D3F8E5"/>
<path d="M207.5 286.994V200.456C207.5 196.89 210.42 194 214.023 194H363.253C365.598 194 367.5 195.927 367.5 198.304V355.392C367.5 360.146 363.697 364 359.005 364H215.995C211.303 364 207.5 360.146 207.5 355.392V323.232V314.506M207.5 305.678V295.986" stroke="#0B5A45" stroke-width="5.75188" stroke-linecap="round"/>
<path d="M212.5 194V168.286C212.5 165.919 214.222 164 216.346 164L358.654 164C360.778 164 362.5 165.919 362.5 168.286V194" stroke="#0B5A45" stroke-width="5.75188"/>
<path d="M252 239C256.142 239 259.5 235.642 259.5 231.5C259.5 227.358 256.142 224 252 224C247.858 224 244.5 227.358 244.5 231.5C244.5 235.642 247.858 239 252 239Z" fill="#D3F8E5" stroke="#0B5A45" stroke-width="5.75188" stroke-linecap="round"/>
<path d="M323 239C327.142 239 330.5 235.642 330.5 231.5C330.5 227.358 327.142 224 323 224C318.858 224 315.5 227.358 315.5 231.5C315.5 235.642 318.858 239 323 239Z" fill="#D3F8E5" stroke="#0B5A45" stroke-width="5.75188" stroke-linecap="round"/>
<path d="M321.5 240C321.5 258.778 306.054 274 287 274C267.946 274 252.5 258.778 252.5 240" stroke="#0B5A45" stroke-width="5.75188" stroke-linecap="round"/>
<path d="M214.768 166L229.819 180.964C230.719 181.858 230.728 183.317 229.84 184.223C229.687 184.38 229.512 184.514 229.32 184.62L212.5 194" stroke="#0B5A45" stroke-width="5.75188" stroke-linecap="round"/>
<path d="M360.292 166L346.143 180.878C345.274 181.792 345.288 183.26 346.174 184.156C346.322 184.305 346.489 184.433 346.671 184.535L363.5 194" stroke="#0B5A45" stroke-width="5.75188" stroke-linecap="round"/>
</svg>
