<svg width="268" height="151" viewBox="0 0 268 151" fill="none" xmlns="http://www.w3.org/2000/svg">
<path fill-rule="evenodd" clip-rule="evenodd" d="M57.3491 111H169.811C170.448 111 171.068 110.932 171.665 110.802C172.262 110.932 172.883 111 173.519 111H237.783C242.561 111 246.434 107.15 246.434 102.4C246.434 97.6504 242.561 93.8 237.783 93.8H230.368C225.59 93.8 221.717 89.9496 221.717 85.2C221.717 80.4504 225.59 76.6 230.368 76.6H253.849C258.627 76.6 262.5 72.7496 262.5 68C262.5 63.2504 258.627 59.4 253.849 59.4H226.66C231.438 59.4 235.311 55.5496 235.311 50.8C235.311 46.0504 231.438 42.2 226.66 42.2H147.566C152.344 42.2 156.217 38.3496 156.217 33.6C156.217 28.8504 152.344 25 147.566 25H77.1226C72.3449 25 68.4717 28.8504 68.4717 33.6C68.4717 38.3496 72.3449 42.2 77.1226 42.2H27.6887C22.9109 42.2 19.0377 46.0504 19.0377 50.8C19.0377 55.5496 22.9109 59.4 27.6887 59.4H58.5849C63.3627 59.4 67.2358 63.2504 67.2358 68C67.2358 72.7496 63.3627 76.6 58.5849 76.6H9.15094C4.37316 76.6 0.5 80.4504 0.5 85.2C0.5 89.9496 4.37316 93.8 9.15094 93.8H57.3491C52.5713 93.8 48.6981 97.6504 48.6981 102.4C48.6981 107.15 52.5713 111 57.3491 111ZM259 111C263.694 111 267.5 107.194 267.5 102.5C267.5 97.8056 263.694 94 259 94C254.306 94 250.5 97.8056 250.5 102.5C250.5 107.194 254.306 111 259 111Z" fill="#F8F5F0"/>
<path d="M194 2V10" stroke="#0B5A45" stroke-width="3.09028" stroke-linecap="round" stroke-linejoin="round"/>
<path d="M194 20V28" stroke="#0B5A45" stroke-width="3.09028" stroke-linecap="round" stroke-linejoin="round"/>
<path d="M181.5 14.5H189.5" stroke="#0B5A45" stroke-width="3.09028" stroke-linecap="round" stroke-linejoin="round"/>
<path d="M199.5 14.5H207.5" stroke="#0B5A45" stroke-width="3.09028" stroke-linecap="round" stroke-linejoin="round"/>
<path d="M91 129V134" stroke="#0B5A45" stroke-width="3.09028" stroke-linecap="round" stroke-linejoin="round"/>
<path d="M91 144V149" stroke="#0B5A45" stroke-width="3.09028" stroke-linecap="round" stroke-linejoin="round"/>
<path d="M81.5 139.5H86.5" stroke="#0B5A45" stroke-width="3.09028" stroke-linecap="round" stroke-linejoin="round"/>
<path d="M96.5 139.5H101.5" stroke="#0B5A45" stroke-width="3.09028" stroke-linecap="round" stroke-linejoin="round"/>
<path fill-rule="evenodd" clip-rule="evenodd" d="M179.751 109.091C181.474 106.981 183.023 104.774 184.398 102.49C187.421 97.4658 189.6 92.0682 190.932 86.5034C192.279 80.8754 192.759 75.0762 192.369 69.3193C192.029 64.2958 191.026 59.3045 189.359 54.4871C187.705 49.7078 185.397 45.0997 182.432 40.8012C180.666 38.2398 178.666 35.7884 176.433 33.4762C173.154 30.0815 169.558 27.1793 165.737 24.7714C161.632 22.1842 157.266 20.1677 152.757 18.7241C147.109 16.9161 141.234 16.0066 135.359 16C130.787 15.9949 126.215 16.5363 121.749 17.6263C116.721 18.8535 111.827 20.776 107.219 23.3967C103.168 25.7004 99.3385 28.5437 95.833 31.9286C91.4276 36.1823 87.8591 40.9773 85.1309 46.1091C82.4598 51.1333 80.594 56.4802 79.5366 61.9577C78.4472 67.601 78.2158 73.3831 78.8456 79.0937C79.6621 86.4955 81.9254 93.7774 85.6428 100.482C88.0215 104.772 90.9956 108.826 94.5669 112.524C100.236 118.394 106.855 122.791 113.945 125.707C122.566 129.252 131.882 130.606 141.032 129.752C148.712 129.035 156.273 126.762 163.208 122.925" fill="white"/>
<path d="M179.751 109.091C181.474 106.981 183.023 104.774 184.398 102.49C187.421 97.4657 189.6 92.0682 190.932 86.5034C192.279 80.8754 192.759 75.0762 192.369 69.3193C192.029 64.2958 191.026 59.3045 189.359 54.4871C187.705 49.7078 185.397 45.0997 182.432 40.8012C180.666 38.2398 178.666 35.7884 176.433 33.4762C173.154 30.0815 169.558 27.1793 165.737 24.7714C161.632 22.1842 157.266 20.1677 152.757 18.7241C147.109 16.9161 141.234 16.0066 135.359 16C130.787 15.9949 126.215 16.5363 121.749 17.6263C116.721 18.8535 111.827 20.776 107.219 23.3967C103.168 25.7004 99.3385 28.5437 95.833 31.9286C91.4276 36.1823 87.8591 40.9773 85.1309 46.1091C82.4598 51.1333 80.594 56.4802 79.5366 61.9577C78.4472 67.601 78.2158 73.3831 78.8456 79.0937C79.6621 86.4955 81.9254 93.7774 85.6428 100.482C88.0215 104.772 90.9956 108.826 94.5669 112.524C100.236 118.394 106.855 122.791 113.945 125.707C122.566 129.252 131.882 130.606 141.032 129.752C148.712 129.035 156.273 126.762 163.208 122.925" stroke="#0B5A45" stroke-width="3.09028" stroke-linecap="round" stroke-linejoin="round"/>
<path fill-rule="evenodd" clip-rule="evenodd" d="M167.599 120.103C171.208 117.601 174.494 114.6 176.674 112.225L167.599 120.103Z" fill="white"/>
<path d="M167.599 120.103C171.208 117.601 174.494 114.6 176.674 112.225" stroke="#0B5A45" stroke-width="3.09028" stroke-linecap="round"/>
<path d="M187.5 76.2401C187.146 76.2464 186.791 76.2495 186.435 76.2495C155.169 76.2495 129.568 51.8734 127.423 21C102.536 24.9255 83.5 46.5699 83.5 72.6824C83.5 101.577 106.808 125 135.559 125C163.121 125 185.68 103.475 187.5 76.2401Z" fill="#D3F8E5"/>
<path fill-rule="evenodd" clip-rule="evenodd" d="M115.719 70.1668C114.205 68.7821 111.855 68.8884 110.472 70.4042C109.088 71.9201 109.195 74.2714 110.709 75.6561L128.19 91.6381C130.31 93.5767 133.599 93.4278 135.536 91.3056C135.617 91.2155 135.617 91.2155 135.695 91.1229L160.642 61.0942C161.953 59.5155 161.738 57.1717 160.16 55.8591C158.583 54.5465 156.241 54.7622 154.93 56.3409L131.476 84.5726L115.719 70.1668Z" fill="white" stroke="#0B5A45" stroke-width="3.09028" stroke-linecap="round"/>
<path fill-rule="evenodd" clip-rule="evenodd" d="M117.969 26.8103C115.576 27.7184 113.237 28.8187 110.976 30.1114C107.463 32.1203 104.138 34.5938 101.091 37.5331C99.8415 38.7381 98.669 39.9923 97.5734 41.2896M94.1957 45.5045C93.2634 46.7969 92.3922 48.113 91.5828 49.4482C90.985 50.4343 90.4209 51.4308 89.8907 52.4357" fill="white"/>
<path d="M118.518 28.2539C119.316 27.951 119.718 27.0591 119.414 26.2618C119.111 25.4646 118.218 25.0638 117.42 25.3667L118.518 28.2539ZM110.976 30.1114L111.744 31.4516L110.976 30.1114ZM101.091 37.5331L100.017 36.4223L101.091 37.5331ZM96.3916 40.2939C95.8411 40.9458 95.9239 41.92 96.5766 42.4699C97.2292 43.0199 98.2046 42.9372 98.7551 42.2853L96.3916 40.2939ZM95.4501 46.4073C95.9492 45.7154 95.7923 44.7503 95.0996 44.2517C94.4068 43.753 93.4406 43.9097 92.9414 44.6016L95.4501 46.4073ZM91.5828 49.4482L92.9053 50.2481L91.5828 49.4482ZM88.523 51.7158C88.1249 52.4703 88.4146 53.4042 89.17 53.8019C89.9254 54.1995 90.8604 53.9102 91.2585 53.1557L88.523 51.7158ZM117.42 25.3667C114.952 26.3033 112.54 27.4381 110.208 28.7712L111.744 31.4516C113.934 30.1994 116.2 29.1336 118.518 28.2539L117.42 25.3667ZM110.208 28.7712C106.585 30.8431 103.157 33.3934 100.017 36.4223L102.165 38.644C105.119 35.7941 108.341 33.3974 111.744 31.4516L110.208 28.7712ZM100.017 36.4223C98.7296 37.6638 97.5211 38.9564 96.3916 40.2939L98.7551 42.2853C99.8169 41.0281 100.953 39.8123 102.165 38.644L100.017 36.4223ZM92.9414 44.6016C91.985 45.9273 91.0911 47.2778 90.2603 48.6483L92.9053 50.2481C93.6933 48.9482 94.5417 47.6664 95.4501 46.4073L92.9414 44.6016ZM90.2603 48.6483C89.6467 49.6605 89.0675 50.6837 88.523 51.7158L91.2585 53.1557C91.7743 52.178 92.3233 51.2081 92.9053 50.2481L90.2603 48.6483Z" fill="#0B5A45"/>
</svg>
