<svg width="16" height="16" viewBox="0 0 16 16" fill="none" xmlns="http://www.w3.org/2000/svg">
<path d="M12.0003 6C12.5683 6 12.865 6.65733 12.5223 7.082L12.4716 7.138L8.47163 11.138C8.35683 11.2528 8.2041 11.3217 8.04208 11.3319C7.88006 11.3421 7.7199 11.2928 7.59163 11.1933L7.52896 11.138L3.52896 7.138L3.47363 7.07533L3.43763 7.024L3.40163 6.96L3.39029 6.936L3.37229 6.89133L3.35096 6.81933L3.34429 6.784L3.33763 6.744L3.33496 6.706V6.62733L3.33829 6.58867L3.34429 6.54867L3.35096 6.514L3.37229 6.442L3.39029 6.39733L3.43696 6.30933L3.48029 6.24933L3.52896 6.19533L3.59163 6.14L3.64296 6.104L3.70696 6.068L3.73096 6.05667L3.77563 6.03867L3.84763 6.01733L3.88296 6.01067L3.92296 6.004L3.96096 6.00133L12.0003 6Z" fill="#141414"/>
</svg>
