<svg width="20" height="20" viewBox="0 0 20 20" fill="none" xmlns="http://www.w3.org/2000/svg">
<path d="M10.0018 4.44502L9.67079 4.14978L9.64108 4.12328C9.13721 3.67659 8.53952 3.34868 7.89206 3.16371C7.24461 2.97874 6.5639 2.94143 5.90012 3.05453L10.0018 4.44502ZM10.0018 4.44502L10.3344 4.15156M10.0018 4.44502L10.3344 4.15156M10.3344 4.15156L10.3617 4.12744C10.3619 4.1273 10.3621 4.12716 10.3622 4.12701C10.843 3.7052 11.4082 3.39073 12.0201 3.20456C12.631 3.01869 13.2745 2.96497 13.9077 3.04695L14.1022 3.07541C14.8996 3.21424 15.6448 3.56557 16.2594 4.09245C16.8755 4.62068 17.3373 5.3057 17.5959 6.07497C17.8544 6.84424 17.9002 7.66912 17.7282 8.46225C17.5566 9.25376 17.1746 9.98426 16.6224 10.5767L16.4922 10.7106L16.4697 10.7298L16.4557 10.7418M10.3344 4.15156L16.4557 10.7418M16.4557 10.7418L16.4426 10.7547M16.4557 10.7418L16.4426 10.7547M16.4426 10.7547L10.2344 16.9038C10.1771 16.9605 10.1011 16.9945 10.0207 16.9995L10.0518 17.4986L10.0207 16.9995C9.94419 17.0043 9.86853 16.9826 9.80634 16.9382L9.75421 16.8928L3.5213 10.7189L3.52132 10.7189M16.4426 10.7547L3.52132 10.7189M3.52132 10.7189L3.51812 10.7158M3.52132 10.7189L3.51812 10.7158M3.51812 10.7158C2.92278 10.1365 2.49939 9.40379 2.29484 8.59873M3.51812 10.7158L2.29484 8.59873M2.29484 8.59873C2.09028 7.79367 2.11254 6.9477 2.35916 6.15451M2.29484 8.59873L2.35916 6.15451M2.35916 6.15451C2.60577 5.36133 3.06711 4.65188 3.69209 4.10473M2.35916 6.15451L3.69209 4.10473M3.69209 4.10473C4.31706 3.55759 5.08127 3.19411 5.90008 3.05453L3.69209 4.10473Z" fill="#141414" stroke="#141414"/>
</svg>
