<svg width="24" height="24" viewBox="0 0 24 24" fill="none" xmlns="http://www.w3.org/2000/svg">
<path d="M12.0014 5.2004L11.6703 4.90516L11.6345 4.87316C11.0186 4.32721 10.2881 3.92642 9.49677 3.70035C8.70544 3.47428 7.87346 3.42867 7.06217 3.5669L12.0014 5.2004ZM12.0014 5.2004L12.334 4.90693M12.0014 5.2004L12.334 4.90693M12.334 4.90693L12.367 4.87782C12.3671 4.8777 12.3672 4.87759 12.3673 4.87747C12.955 4.36183 13.6459 3.97741 14.3939 3.74984C15.1408 3.5226 15.9275 3.45698 16.7017 3.55732L16.9373 3.59179C17.9124 3.7613 18.8237 4.19081 19.5752 4.83507C20.3282 5.48069 20.8926 6.31794 21.2087 7.25815C21.5247 8.19837 21.5806 9.20655 21.3704 10.1759C21.1606 11.1437 20.6934 12.0368 20.0182 12.7611L19.8579 12.9258L19.8274 12.9518L19.8134 12.9638M12.334 4.90693L19.8134 12.9638M19.8134 12.9638L19.8003 12.9768M19.8134 12.9638L19.8003 12.9768M19.8003 12.9768L12.3504 20.3556C12.2645 20.4407 12.1506 20.4918 12.0299 20.4993C11.9134 20.5066 11.7983 20.4729 11.7042 20.4043L11.6358 20.3446L4.15402 12.9338L4.15403 12.9338M19.8003 12.9768L4.15403 12.9338M4.15403 12.9338L4.15083 12.9307M4.15403 12.9338L4.15083 12.9307M4.15083 12.9307C3.4232 12.2227 2.90572 11.3271 2.65571 10.3431M4.15083 12.9307L2.65571 10.3431M2.65571 10.3431C2.4057 9.35919 2.43291 8.32522 2.73432 7.35577M2.65571 10.3431L2.73432 7.35577M2.73432 7.35577C3.03574 6.38632 3.5996 5.51922 4.36346 4.85049M2.73432 7.35577L4.36346 4.85049M4.36346 4.85049C5.12732 4.18176 6.06135 3.7375 7.06213 3.56691L4.36346 4.85049Z" fill="#141414" stroke="#141414"/>
</svg>
