<svg width="128" height="28" viewBox="0 0 128 28" fill="none" xmlns="http://www.w3.org/2000/svg">
<path d="M0.616249 15.3438H5.335C5.335 16.3646 5.76208 17.1875 6.61625 17.8125C7.49125 18.4167 8.69958 18.7188 10.2412 18.7188C11.4079 18.7188 12.3558 18.4896 13.085 18.0312C13.8142 17.5521 14.1787 16.9479 14.1787 16.2188C14.1787 15.6146 13.9392 15.125 13.46 14.75C13.0017 14.3542 12.3975 14.0625 11.6475 13.875C10.8975 13.6667 10.0642 13.4896 9.1475 13.3438C8.25167 13.1771 7.34542 12.9583 6.42875 12.6875C5.51208 12.3958 4.67875 12.0312 3.92875 11.5938C3.17875 11.1354 2.56417 10.4792 2.085 9.625C1.62667 8.75 1.3975 7.69792 1.3975 6.46875C1.3975 4.82292 2.16833 3.39583 3.71 2.1875C5.2725 0.979167 7.38708 0.375 10.0537 0.375C11.5954 0.375 12.9496 0.59375 14.1162 1.03125C15.2829 1.44792 16.1787 2.01042 16.8037 2.71875C17.4496 3.42708 17.9287 4.16667 18.2412 4.9375C18.5537 5.70833 18.71 6.51042 18.71 7.34375H13.9912C13.9912 6.40625 13.6787 5.63542 13.0537 5.03125C12.4287 4.42708 11.4287 4.125 10.0537 4.125C8.92875 4.125 7.99125 4.34375 7.24125 4.78125C6.51208 5.19792 6.1475 5.76042 6.1475 6.46875C6.1475 7.15625 6.37667 7.72917 6.835 8.1875C7.31417 8.625 7.92875 8.94792 8.67875 9.15625C9.42875 9.36458 10.2621 9.55208 11.1787 9.71875C12.0954 9.88542 13.0017 10.1042 13.8975 10.375C14.8142 10.625 15.6475 10.9583 16.3975 11.375C17.1475 11.7708 17.7517 12.3854 18.21 13.2188C18.6892 14.0312 18.9287 15.0312 18.9287 16.2188C18.9287 18.0104 18.1683 19.5 16.6475 20.6875C15.1475 21.875 13.0121 22.4688 10.2412 22.4688C8.55375 22.4688 7.06417 22.2604 5.7725 21.8438C4.50167 21.4271 3.50167 20.875 2.7725 20.1875C2.04333 19.4792 1.50167 18.7188 1.1475 17.9062C0.793332 17.0938 0.616249 16.2396 0.616249 15.3438ZM19.8062 22V0.84375H24.1812V12H25.2437L29.7125 6.375H34.525L28.5875 13.875L34.775 22H29.65L24.775 15.5938H24.1812V22H19.8062ZM38.4025 10.6875C37.7358 11.4583 37.4025 12.5938 37.4025 14.0938C37.4025 15.5938 37.7358 16.7708 38.4025 17.625C39.09 18.4583 39.9546 18.875 40.9963 18.875C41.9754 18.875 42.7879 18.4792 43.4338 17.6875C44.0796 16.8958 44.4233 15.7812 44.465 14.3438V13.875C44.4233 12.4375 44.0796 11.3542 43.4338 10.625C42.8088 9.875 41.9963 9.5 40.9963 9.5C39.9546 9.5 39.09 9.89583 38.4025 10.6875ZM34.84 20.0938C33.5067 18.5104 32.84 16.5104 32.84 14.0938C32.84 11.6771 33.5067 9.70833 34.84 8.1875C36.1733 6.66667 37.9025 5.90625 40.0275 5.90625C42.09 5.90625 43.6942 6.83333 44.84 8.6875L45.715 6.375H48.9963V22H45.715L44.7463 19.7188C43.6213 21.5521 42.0483 22.4688 40.0275 22.4688C37.9233 22.4688 36.1942 21.6771 34.84 20.0938ZM50.8112 22V6.375H53.9362L55.03 9.25C55.78 7.33333 57.1862 6.375 59.2487 6.375H59.8737V10.2812H59.2487C57.9571 10.2812 56.9675 10.625 56.28 11.3125C55.5925 12 55.2279 12.9167 55.1862 14.0625V22H50.8112ZM64.5013 14.0938C64.5013 15.5312 64.8033 16.6875 65.4075 17.5625C66.0117 18.4375 66.8658 18.875 67.97 18.875C69.095 18.875 69.97 18.4375 70.595 17.5625C71.2408 16.6667 71.5638 15.5104 71.5638 14.0938C71.5638 12.6771 71.2513 11.5625 70.6263 10.75C70.0013 9.91667 69.1158 9.5 67.97 9.5C66.9283 9.5 66.095 9.92708 65.47 10.7812C64.8658 11.6354 64.5429 12.6771 64.5013 13.9062V14.0938ZM60.1263 27.5312V6.375H63.2513L64.095 8.78125C65.2408 6.86458 66.8554 5.90625 68.9388 5.90625C71.1888 5.90625 72.9492 6.65625 74.22 8.15625C75.4908 9.65625 76.1263 11.6354 76.1263 14.0938C76.1263 16.5312 75.47 18.5417 74.1575 20.125C72.845 21.6875 71.1054 22.4688 68.9388 22.4688C67.0846 22.4688 65.6054 21.7083 64.5013 20.1875V27.5312H60.1263ZM80.6912 12.3125H87.41C87.3892 11.4167 87.0871 10.6771 86.5037 10.0938C85.9412 9.48958 85.1392 9.1875 84.0975 9.1875C83.0558 9.1875 82.2329 9.48958 81.6287 10.0938C81.0246 10.6771 80.7121 11.4167 80.6912 12.3125ZM78.41 20.1875C76.8475 18.6458 76.0662 16.6146 76.0662 14.0938C76.0662 11.5729 76.8162 9.58333 78.3162 8.125C79.8162 6.64583 81.7433 5.90625 84.0975 5.90625C86.3892 5.90625 88.2537 6.64583 89.6912 8.125C91.1287 9.60417 91.8475 11.4583 91.8475 13.6875V14.9688H80.6912C80.7121 16.0938 81.0454 17.0312 81.6912 17.7812C82.3579 18.5104 83.2225 18.875 84.285 18.875C85.4308 18.875 86.2537 18.5521 86.7537 17.9062C87.0454 17.5312 87.1912 17.1771 87.1912 16.8438H91.7225C91.7225 17.8438 91.3475 18.8125 90.5975 19.75C89.16 21.5625 87.0558 22.4688 84.285 22.4688C81.9308 22.4688 79.9725 21.7083 78.41 20.1875ZM91.1625 9.96875V6.375H93.6625V2.625H98.0375V6.375H104.069V2.625H108.444V6.375H112.287V9.96875H108.444V15.375C108.444 17.2708 108.933 18.2188 109.912 18.2188H112.287V22H109.506C107.694 22 106.329 21.5 105.412 20.5C104.517 19.4792 104.069 18.0833 104.069 16.3125V9.96875H98.0375V15.375C98.0375 17.2708 98.5271 18.2188 99.5062 18.2188H101.881V22H99.1C97.2875 22 95.9229 21.5 95.0062 20.5C94.1104 19.4792 93.6625 18.0833 93.6625 16.3125V9.96875H91.1625ZM116.228 12.3125H122.946C122.925 11.4167 122.623 10.6771 122.04 10.0938C121.478 9.48958 120.675 9.1875 119.634 9.1875C118.592 9.1875 117.769 9.48958 117.165 10.0938C116.561 10.6771 116.248 11.4167 116.228 12.3125ZM113.946 20.1875C112.384 18.6458 111.603 16.6146 111.603 14.0938C111.603 11.5729 112.353 9.58333 113.853 8.125C115.353 6.64583 117.28 5.90625 119.634 5.90625C121.925 5.90625 123.79 6.64583 125.228 8.125C126.665 9.60417 127.384 11.4583 127.384 13.6875V14.9688H116.228C116.248 16.0938 116.582 17.0312 117.228 17.7812C117.894 18.5104 118.759 18.875 119.821 18.875C120.967 18.875 121.79 18.5521 122.29 17.9062C122.582 17.5312 122.728 17.1771 122.728 16.8438H127.259C127.259 17.8438 126.884 18.8125 126.134 19.75C124.696 21.5625 122.592 22.4688 119.821 22.4688C117.467 22.4688 115.509 21.7083 113.946 20.1875Z" fill="#0B5A45"/>
</svg>
