<svg width="25" height="16" viewBox="0 0 25 16" fill="none" xmlns="http://www.w3.org/2000/svg">
<g clip-path="url(#clip0_857_2505)">
<path d="M11.523 13.7307C11.5819 13.7805 11.6449 13.8302 11.7069 13.8789C10.5112 14.6734 9.07577 15.1352 7.5347 15.1352C3.37269 15.1361 0 11.7672 0 7.61103C0 3.45579 3.37269 0.0859375 7.53368 0.0859375C9.07577 0.0859375 10.5112 0.548646 11.7038 1.34215C11.6429 1.3939 11.5819 1.44159 11.5362 1.49435C9.75232 3.03368 8.73139 5.26502 8.73139 7.61103C8.73139 9.95605 9.74824 12.1874 11.523 13.7307ZM16.8471 0.0859375C15.3031 0.0859375 13.8696 0.548646 12.677 1.34215C12.738 1.3939 12.7989 1.44159 12.8446 1.49435C14.6285 3.03368 15.6494 5.26502 15.6494 7.61103C15.6494 9.95501 14.6326 12.1844 12.8579 13.7307C12.7989 13.7805 12.7359 13.8302 12.674 13.8789C13.8696 14.6734 15.3031 15.1352 16.8461 15.1352C21.0081 15.1361 24.3808 11.7672 24.3808 7.61103C24.3808 3.45681 21.0082 0.0859375 16.8471 0.0859375ZM12.1904 1.69932C12.0929 1.77543 11.9984 1.85153 11.906 1.93372C10.3171 3.31272 9.31454 5.34315 9.31454 7.61103C9.31454 9.87991 10.3171 11.9094 11.906 13.2884C11.9974 13.3695 12.0939 13.4487 12.1904 13.5238C12.288 13.4487 12.3824 13.3695 12.4748 13.2884C14.0627 11.9094 15.0663 9.87991 15.0663 7.61103C15.0663 5.34315 14.0637 3.31272 12.4748 1.93372C12.3834 1.85255 12.288 1.77543 12.1904 1.69932Z" fill="#A3A3A3"/>
</g>
<defs>
<clipPath id="clip0_857_2505">
<rect width="25" height="16" fill="white"/>
</clipPath>
</defs>
</svg>
