<svg width="96" height="96" viewBox="0 0 96 96" fill="none" xmlns="http://www.w3.org/2000/svg">
<g clip-path="url(#clip0_1159_6856)">
<circle cx="48" cy="48" r="48" fill="#D3F8E5"/>
<g clip-path="url(#clip1_1159_6856)">
<path d="M45.9994 28C44.9385 28 43.9211 28.4214 43.1709 29.1716C42.4208 29.9217 41.9994 30.9391 41.9994 32H61.9994C61.9994 30.9391 61.5779 29.9217 60.8278 29.1716C60.0777 28.4214 59.0602 28 57.9994 28H45.9994ZM61.9994 36H41.9994V40.344C41.9993 40.8744 41.7885 41.383 41.4134 41.758L34.2414 48.928C32.366 50.8034 31.3125 53.3469 31.3125 55.999C31.3125 58.6511 32.366 61.1946 34.2414 63.07L34.9274 63.758C36.8027 65.6333 39.3462 66.6869 41.9984 66.6869C44.6505 66.6869 47.194 65.6333 49.0694 63.758L59.0694 53.758C59.9983 52.8294 60.7351 51.7269 61.2378 50.5135C61.7406 49.3 61.9994 47.9995 61.9994 46.686V36Z" fill="#19B080"/>
</g>
</g>
<defs>
<clipPath id="clip0_1159_6856">
<rect width="96" height="96" fill="white"/>
</clipPath>
<clipPath id="clip1_1159_6856">
<rect width="48" height="48" fill="white" transform="translate(24 24)"/>
</clipPath>
</defs>
</svg>
