<svg width="18" height="18" viewBox="0 0 18 18" fill="none" xmlns="http://www.w3.org/2000/svg">
<path d="M8.99984 0.666626C13.6023 0.666626 17.3332 4.39746 17.3332 8.99996C17.3349 11.1879 16.4761 13.2887 14.9423 14.8488C13.4084 16.409 11.3225 17.3033 9.13486 17.3388C6.94725 17.3742 4.83345 16.5479 3.24984 15.0383C1.66622 13.5286 0.739828 11.4568 0.670671 9.26996L0.666504 8.99996L0.669837 8.76663C0.793171 4.27246 4.47484 0.666626 8.99984 0.666626ZM8.99984 11.5C8.79573 11.5 8.59872 11.5749 8.44619 11.7106C8.29366 11.8462 8.19622 12.0331 8.17234 12.2358L8.1665 12.3333L8.17234 12.4391C8.19643 12.6417 8.29397 12.8283 8.44647 12.9638C8.59898 13.0992 8.79587 13.174 8.99984 13.174C9.20381 13.174 9.40069 13.0992 9.5532 12.9638C9.70571 12.8283 9.80325 12.6417 9.82734 12.4391L9.83317 12.3416L9.82734 12.2358C9.80346 12.0331 9.70601 11.8462 9.55348 11.7106C9.40095 11.5749 9.20395 11.5 8.99984 11.5ZM10.1398 5.93913C9.64099 5.6841 9.07057 5.60525 8.52124 5.71538C7.97192 5.82552 7.47598 6.11817 7.114 6.54579C6.97599 6.70746 6.90497 6.91576 6.91549 7.12807C6.926 7.34038 7.01725 7.54064 7.17056 7.68789C7.32387 7.83513 7.52766 7.91822 7.74021 7.92015C7.95277 7.92209 8.15804 7.84272 8.314 7.69829L8.4565 7.54829C8.57944 7.43544 8.73401 7.36297 8.89939 7.34062C9.06476 7.31827 9.23302 7.34712 9.3815 7.42329C9.54157 7.5043 9.67123 7.63481 9.75119 7.79541C9.83115 7.956 9.85715 8.13812 9.82532 8.31467C9.79349 8.49123 9.70553 8.6528 9.57452 8.77537C9.44352 8.89793 9.27645 8.97495 9.09817 8.99496L8.90484 9.00496C8.69289 9.02828 8.49794 9.13196 8.36011 9.29466C8.22229 9.45737 8.15208 9.66671 8.16393 9.87961C8.17578 10.0925 8.2688 10.2928 8.42383 10.4392C8.57886 10.5856 8.78411 10.667 8.99734 10.6666C9.55952 10.6683 10.1059 10.4805 10.5482 10.1334C10.9904 9.78636 11.3028 9.30037 11.4349 8.75391C11.567 8.20745 11.511 7.63243 11.276 7.1217C11.041 6.61097 10.6408 6.19436 10.1398 5.93913Z" fill="#A3A3A3"/>
</svg>
